<svg width="351" height="311" viewBox="0 0 351 311" fill="none" xmlns="http://www.w3.org/2000/svg">
<path d="M21.6775 201.698C29.1303 218.56 19.6212 237.983 8.44557 252.624C4.69772 257.525 0.577946 262.655 0.0522454 268.824C-0.573588 276.346 4.51176 283.264 10.5484 287.785C21.5523 296.024 36.5866 298.571 49.6827 294.416C61.0013 290.833 70.5176 282.712 81.9328 279.438C101.037 273.961 121.271 283.042 137.618 294.351C149.187 302.354 161.578 312.084 175.525 310.375C185.346 309.172 193.678 302.268 199.328 294.136C202.057 290.196 204.432 285.815 208.408 283.164C210.772 281.587 213.547 280.753 216.326 280.158C241.681 274.731 268.585 287.978 293.604 281.165C310.502 276.561 323.977 263.181 332.352 247.781C340.728 232.38 344.64 214.984 347.898 197.75C350.212 185.502 352.132 172.286 346.825 161.016C341.196 149.094 328.168 141.869 315.076 140.518C301.983 139.168 288.848 142.911 276.785 148.192C261.712 154.794 246.938 164.036 230.484 164.069C219.28 164.09 208.598 159.77 197.884 156.499C179.938 151.007 161.342 148.278 142.771 145.759C125.001 143.348 107.059 141.102 89.1817 142.535C76.5327 143.542 65.3643 148.385 53.0908 150.624C45.0908 152.086 37.0515 150.982 29.2018 153.458C19.5461 156.485 9.58995 163.51 9.0571 174.561C8.55286 185.068 17.7222 192.745 21.6775 201.698Z" fill="#FEBB1B" fill-opacity="0.08"/>
<path d="M153.406 0H196.265L200.582 20.1424H149.09L153.406 0Z" fill="black"/>
<path d="M201.974 18.7129H147.699C146.323 18.7129 145.207 19.8303 145.207 21.2087V21.6657C145.207 23.0441 146.323 24.1615 147.699 24.1615H201.974C203.35 24.1615 204.466 23.0441 204.466 21.6657V21.2087C204.466 19.8303 203.35 18.7129 201.974 18.7129Z" fill="black"/>
<path d="M292.313 112.547C291.903 117.046 291.085 120.421 285.715 122.108C283.05 122.861 280.296 123.255 277.527 123.28C276.732 123.28 275.901 123.28 275.012 123.28H71.3375C71.0896 123.279 70.8426 123.251 70.6005 123.198C68.1324 122.741 63.3716 120.104 61.5936 113.121C59.605 105.352 74.3437 57.779 78.9174 46.413C83.7601 34.4025 121.11 27.5595 166.168 27.9579C208.583 28.286 261.9 33.0316 269.351 38.7146C276.802 44.3976 292.909 105.973 292.313 112.547Z" fill="white"/>
<path d="M190.137 33.3247H163.958C162.22 33.3247 160.812 34.7359 160.812 36.4767V39.2655C160.812 41.0063 162.22 42.4175 163.958 42.4175H190.137C191.875 42.4175 193.283 41.0063 193.283 39.2655V36.4767C193.283 34.7359 191.875 33.3247 190.137 33.3247Z" fill="#FEBB1B"/>
<path d="M175 29.0127C175 29.0127 174.614 34.9652 175.339 35.7385C175.774 36.154 176.352 36.3858 176.954 36.3858C177.555 36.3858 178.133 36.154 178.568 35.7385C179.457 34.7894 179.293 29.0127 179.293 29.0127H175Z" fill="black"/>
<path d="M280.557 120.269C278.023 120.969 275.408 121.335 272.779 121.358C272.018 121.358 271.211 121.358 270.369 121.358H76.3327C76.0972 121.355 75.8624 121.331 75.6309 121.288C77.0112 110.074 80.4151 89.9437 87.1294 87.4947C90.1684 86.7605 93.2796 86.3674 96.4054 86.323C108.348 85.5848 128.749 85.7254 146.131 86.323C162.765 86.9089 176.638 87.9166 177.714 88.9594C179.266 90.4951 180.28 92.493 180.603 94.6541C180.603 94.6541 180.603 89.8148 184.007 88.6782C185.458 88.1861 201.179 86.9792 219.099 86.241C237.02 85.5028 257.046 85.2215 267.14 86.6042C270.65 87.0846 272.907 87.776 273.527 88.6782C276.381 92.9199 279.107 109.805 280.557 120.269Z" fill="#D1D3D4"/>
<path d="M41.2993 105.751C41.2993 105.751 19.7059 100.255 13.0735 110.438C6.44107 120.62 12.512 125.612 23.3087 126.749C34.1054 127.885 40.925 128.647 43.0071 126.749C45.0892 124.85 44.7032 108.352 43.0071 107.028L41.2993 105.751Z" fill="black"/>
<path d="M42.5274 123.491L53.5112 125.389L51.7215 130.135L38.2695 126.818L42.5274 123.491Z" fill="black"/>
<path d="M309.029 105.751C309.029 105.751 330.622 100.255 337.243 110.438C343.864 120.62 337.816 125.612 327.019 126.749C316.223 127.885 309.403 128.647 307.321 126.749C305.239 124.85 305.625 108.352 307.321 107.028L309.029 105.751Z" fill="black"/>
<path d="M307.8 123.491L296.816 125.389L298.606 130.135L312.058 126.818L307.8 123.491Z" fill="black"/>
<path d="M32.2099 202.701H67.0565V249.642C67.0472 252.383 65.9536 255.008 64.0154 256.943C62.0772 258.878 59.4524 259.965 56.716 259.965H42.5387C39.7963 259.965 37.1661 258.873 35.2269 256.931C33.2877 254.988 32.1982 252.354 32.1982 249.606V202.701H32.2099Z" fill="black"/>
<path d="M283.563 202.701H318.41V249.642C318.41 252.389 317.321 255.023 315.381 256.966C313.442 258.909 310.812 260 308.07 260H293.892C291.15 260 288.52 258.909 286.58 256.966C284.641 255.023 283.552 252.389 283.552 249.642V202.701H283.563Z" fill="black"/>
<path d="M102.64 59.4077H141.077C145.342 59.4139 149.43 61.1154 152.443 64.1384C155.457 67.1614 157.149 71.2589 157.149 75.531V130.135H86.5439V75.531C86.5439 71.2549 88.2397 67.1538 91.2582 64.1301C94.2768 61.1064 98.3707 59.4077 102.64 59.4077Z" fill="black"/>
<path d="M215.216 59.4077H253.63C255.746 59.4047 257.841 59.8194 259.797 60.6283C261.752 61.4372 263.529 62.6244 265.026 64.1219C266.523 65.6193 267.711 67.3978 268.522 69.3555C269.332 71.3132 269.749 73.4117 269.749 75.531V130.135H199.12V75.531C199.12 71.2549 200.816 67.1538 203.834 64.1301C206.853 61.1064 210.947 59.4077 215.216 59.4077Z" fill="black"/>
<path d="M86.7551 138.021C85.7603 131.701 85.1509 125.327 84.9303 118.933C79.6781 119.015 90.4397 82.9248 97.8793 77.9214C111.401 68.7701 132.913 64.8213 147.172 81.5421C151.676 86.8267 161.361 101.931 160.168 114.14C159.829 117.562 155.489 118.956 150.588 119.038C149.736 126.274 149.513 133.57 149.921 140.844L86.7551 138.021Z" fill="#FEBB1B"/>
<path d="M128.281 75.6599L124.292 99.88L121.192 110.52L118.116 99.8566L114.724 75.6013C119.124 74.1124 123.894 74.133 128.281 75.6599Z" fill="#231F20"/>
<path d="M121.227 85.7255L117.612 82.9367L121.227 80.1362L124.841 82.9367L121.227 85.7255Z" fill="white"/>
<path d="M124.303 99.8801L121.227 110.531L118.15 99.8567L120.01 84.2021L120.045 83.8857H122.408L122.443 84.2255L124.303 99.8801Z" fill="white"/>
<path d="M136.668 108.68C119.742 95.0642 103.506 74.0664 103.506 74.0664C101.477 74.5723 99.6021 75.5657 98.043 76.9606C101.353 84.7879 116.759 100.126 129.825 110.449C131.988 109.471 134.302 108.872 136.668 108.68Z" fill="black"/>
<path d="M119.952 106.758C114.819 106.757 109.852 108.588 105.945 111.923C102.037 115.258 99.4428 119.878 98.6279 124.956H104.816C105.591 121.515 107.51 118.442 110.26 116.239C113.01 114.037 116.426 112.837 119.946 112.837C123.467 112.837 126.883 114.037 129.633 116.239C132.382 118.442 134.302 121.515 135.077 124.956H141.277C140.46 119.879 137.865 115.26 133.958 111.926C130.05 108.591 125.085 106.76 119.952 106.758Z" fill="white"/>
<path d="M111.179 110.426C112.661 111.425 114.013 112.606 115.202 113.941C115.752 114.503 116.372 115.417 115.764 115.98C115.156 116.542 114.512 116.167 113.927 115.851L109.494 113.496C111.199 114.216 112.592 115.52 113.424 117.175C113.561 117.363 113.638 117.587 113.647 117.819C113.619 118.018 113.521 118.201 113.371 118.334C113.221 118.467 113.028 118.542 112.828 118.546C112.42 118.548 112.018 118.447 111.658 118.253C109.716 117.398 108.734 116.765 106.78 115.91C107.798 116.531 108.301 116.507 109.307 117.081C110.313 117.655 112.138 119.425 111.646 120.151C111.45 120.386 111.184 120.551 110.887 120.623C110.59 120.694 110.278 120.669 109.997 120.55C108.564 120.207 107.154 119.777 105.774 119.261C106.983 119.562 108.033 120.312 108.71 121.358C108.826 121.501 108.892 121.678 108.898 121.862C108.898 122.401 108.102 122.46 107.587 122.319C105.049 121.604 102.815 119.882 100.195 119.647C99.5446 119.697 98.8971 119.523 98.3582 119.155C96.4866 117.339 100.031 113.297 101.493 112.125C104.64 109.781 107.424 108.153 111.179 110.426Z" fill="white"/>
<path d="M108.114 122.952C107.894 122.951 107.674 122.923 107.459 122.87C106.402 122.539 105.373 122.124 104.383 121.628C103.075 120.919 101.654 120.444 100.184 120.222H99.9379C99.2346 120.246 98.5459 120.017 97.9962 119.577C97.7363 119.329 97.5368 119.025 97.4131 118.688C97.2894 118.351 97.2447 117.989 97.2826 117.632C97.423 115.417 99.9262 112.605 101.178 111.668C104.266 109.324 107.377 107.449 111.472 109.934C112.993 110.928 114.384 112.109 115.612 113.449C116.63 114.492 116.852 115.605 116.186 116.308C115.8 116.706 115.016 117.034 113.659 116.308L113.963 116.788C114.151 117.074 114.256 117.407 114.267 117.749C114.239 118.095 114.085 118.418 113.835 118.657C113.585 118.897 113.256 119.037 112.91 119.05C112.625 119.07 112.339 119.034 112.068 118.944C112.189 119.139 112.276 119.353 112.325 119.577C112.366 119.723 112.374 119.876 112.35 120.026C112.325 120.176 112.269 120.318 112.185 120.444C111.922 120.776 111.561 121.016 111.154 121.132C110.747 121.247 110.314 121.232 109.916 121.089L109.191 120.901C109.214 120.934 109.234 120.969 109.249 121.007C109.435 121.252 109.534 121.553 109.53 121.862C109.52 122.022 109.473 122.179 109.394 122.319C109.315 122.459 109.206 122.579 109.074 122.67C108.79 122.86 108.455 122.958 108.114 122.952ZM107.635 109.98C105.635 109.98 103.857 111.152 101.88 112.64C100.71 113.484 98.5576 116.038 98.4524 117.749C98.4305 117.936 98.4507 118.126 98.5114 118.304C98.5721 118.483 98.6718 118.645 98.8033 118.78C99.1521 119.002 99.5601 119.113 99.973 119.097H100.23C101.844 119.322 103.405 119.834 104.839 120.608C105.771 121.072 106.737 121.464 107.728 121.78C107.909 121.827 108.098 121.827 108.278 121.78L108.325 121.698C107.89 121.036 107.283 120.506 106.57 120.163L105.67 119.835C105.531 119.78 105.417 119.675 105.35 119.541C105.283 119.407 105.268 119.253 105.307 119.108C105.353 118.966 105.451 118.846 105.581 118.772C105.71 118.699 105.863 118.676 106.009 118.71C106.354 118.801 106.691 118.923 107.015 119.073C108.068 119.436 109.144 119.741 110.232 119.999C110.758 120.128 111.062 120.14 111.261 119.835C110.739 118.928 109.999 118.167 109.109 117.62H109.038L108.173 117.175L107.916 117.081C107.446 116.9 106.992 116.681 106.559 116.425C106.421 116.354 106.317 116.23 106.269 116.082C106.222 115.933 106.236 115.772 106.307 115.634C106.379 115.496 106.502 115.392 106.65 115.344C106.798 115.297 106.959 115.311 107.097 115.382C107.682 115.64 108.185 115.886 108.652 116.109C109.007 116.257 109.351 116.429 109.682 116.624C110.372 116.976 111.062 117.327 112.021 117.726C112.297 117.873 112.599 117.96 112.91 117.983C113.074 117.983 113.191 117.855 113.191 117.808C113.191 117.761 113.097 117.573 113.051 117.491C112.493 116.489 111.76 115.596 110.887 114.855L109.354 114.023C109.218 113.958 109.111 113.843 109.057 113.702C109.003 113.561 109.006 113.404 109.065 113.264C109.124 113.125 109.234 113.014 109.373 112.954C109.512 112.895 109.669 112.891 109.811 112.945C110.431 113.156 111.012 113.469 111.53 113.871L114.314 115.37C114.864 115.663 115.308 115.757 115.484 115.605C115.659 115.453 115.343 114.82 114.922 114.433C113.764 113.148 112.452 112.011 111.015 111.047C110.018 110.366 108.842 109.995 107.635 109.98Z" fill="#231F20"/>
<path d="M130.175 109.641C128.688 110.633 127.335 111.815 126.152 113.156C125.602 113.719 124.982 114.632 125.578 115.195C126.175 115.757 126.83 115.382 127.415 115.066L131.825 112.723C130.121 113.44 128.731 114.745 127.906 116.402C127.766 116.588 127.684 116.813 127.672 117.046C127.7 117.247 127.8 117.431 127.952 117.565C128.105 117.698 128.3 117.772 128.503 117.773C128.911 117.775 129.313 117.674 129.673 117.48C131.626 116.624 132.609 115.992 134.55 115.136C133.544 115.757 133.041 115.734 132.024 116.308C131.006 116.882 129.205 118.652 129.684 119.378C129.88 119.613 130.146 119.778 130.443 119.849C130.74 119.921 131.052 119.896 131.334 119.776C132.767 119.436 134.177 119.005 135.556 118.488C134.348 118.789 133.298 119.538 132.62 120.585C132.512 120.731 132.451 120.907 132.445 121.089C132.445 121.628 133.24 121.686 133.755 121.546C136.282 120.831 138.527 119.109 141.148 118.874C141.794 118.923 142.438 118.749 142.972 118.382C144.844 116.566 141.3 112.453 139.838 111.352C136.714 108.985 133.93 107.368 130.175 109.641Z" fill="white"/>
<path d="M133.229 122.167C132.894 122.178 132.564 122.088 132.281 121.909C132.149 121.819 132.04 121.699 131.962 121.558C131.885 121.418 131.842 121.261 131.837 121.101C131.829 120.793 131.924 120.492 132.106 120.245L132.176 120.14L131.451 120.315C131.054 120.466 130.621 120.486 130.212 120.372C129.804 120.258 129.443 120.017 129.181 119.683C129.098 119.556 129.041 119.414 129.015 119.265C128.989 119.116 128.994 118.963 129.029 118.816C129.086 118.594 129.173 118.381 129.287 118.183C129.019 118.272 128.737 118.308 128.456 118.288C128.105 118.285 127.768 118.153 127.507 117.918C127.246 117.683 127.081 117.36 127.041 117.011C127.05 116.667 127.16 116.333 127.357 116.05C127.45 115.898 127.544 115.734 127.661 115.57C126.269 116.32 125.52 115.992 125.122 115.57C124.456 114.867 124.678 113.742 125.695 112.711C126.92 111.367 128.312 110.186 129.836 109.196C133.942 106.711 137.054 108.598 140.13 110.918C141.382 111.867 143.897 114.679 144.025 116.894C144.059 117.25 144.013 117.609 143.892 117.945C143.77 118.281 143.576 118.587 143.323 118.839C142.772 119.276 142.085 119.505 141.382 119.484H141.136C139.662 119.706 138.238 120.182 136.925 120.89C135.934 121.385 134.905 121.8 133.849 122.132C133.644 122.167 133.436 122.179 133.229 122.167ZM134.831 119.331C134.123 119.682 133.522 120.216 133.088 120.878C133.018 120.995 133.006 121.042 132.995 121.042C132.983 121.042 133.287 121.042 133.568 120.948C134.564 120.635 135.534 120.243 136.469 119.776C137.901 119.006 139.457 118.49 141.066 118.253H141.335C141.748 118.273 142.157 118.162 142.505 117.937C142.642 117.806 142.746 117.644 142.807 117.465C142.868 117.285 142.885 117.093 142.856 116.906C142.75 115.195 140.516 112.64 139.428 111.797C136.469 109.57 133.93 108.024 130.445 110.145C129.015 111.09 127.714 112.216 126.573 113.496C126.152 113.929 125.812 114.515 126 114.668C126.187 114.82 126.596 114.726 127.169 114.433L129.965 112.922C130.482 112.521 131.064 112.212 131.685 112.008C131.823 111.964 131.973 111.973 132.104 112.034C132.236 112.095 132.341 112.202 132.398 112.336C132.457 112.47 132.463 112.622 132.415 112.761C132.368 112.9 132.27 113.016 132.141 113.086L130.597 113.918C129.727 114.66 128.998 115.553 128.444 116.554C128.373 116.648 128.321 116.756 128.292 116.871C128.292 116.871 128.421 117.023 128.585 117.035C128.892 117.021 129.192 116.937 129.462 116.788C130.374 116.39 131.076 116.039 131.802 115.687C132.13 115.487 132.474 115.315 132.831 115.171C133.287 114.937 133.79 114.703 134.375 114.445C134.512 114.386 134.667 114.382 134.807 114.432C134.948 114.481 135.065 114.582 135.135 114.714C135.204 114.847 135.219 115.002 135.178 115.145C135.136 115.289 135.042 115.412 134.913 115.488C134.485 115.742 134.034 115.958 133.568 116.132L133.31 116.238L132.433 116.683H132.363C131.392 117.281 130.234 118.593 130.246 119.027C130.421 119.237 130.714 119.237 131.24 119.109C132.328 118.851 133.404 118.534 134.469 118.183C134.786 118.027 135.12 117.906 135.463 117.82C135.608 117.786 135.761 117.808 135.891 117.882C136.021 117.956 136.119 118.076 136.165 118.218C136.21 118.361 136.199 118.516 136.134 118.651C136.069 118.787 135.954 118.892 135.814 118.944C135.439 119.12 135.135 119.237 134.831 119.355V119.331Z" fill="#231F20"/>
<path d="M96.0895 110.18C95.9956 110.18 95.9031 110.157 95.8198 110.114C95.7365 110.07 95.6649 110.007 95.611 109.93C95.557 109.853 95.5224 109.765 95.51 109.671C95.4976 109.578 95.5078 109.483 95.5397 109.395C95.5397 109.395 100.219 96.2008 102.769 88.6547C102.829 88.5211 102.937 88.415 103.072 88.3573C103.206 88.2996 103.357 88.2946 103.495 88.3431C103.634 88.3917 103.748 88.4904 103.817 88.6196C103.886 88.7489 103.905 88.8994 103.868 89.0414C101.669 95.4274 98.0196 105.856 96.9434 108.961L106.301 108.012C106.378 108.004 106.456 108.011 106.53 108.033C106.604 108.056 106.673 108.092 106.733 108.141C106.793 108.19 106.842 108.251 106.879 108.319C106.915 108.387 106.937 108.462 106.945 108.539C106.953 108.616 106.945 108.693 106.923 108.766C106.901 108.84 106.864 108.908 106.815 108.967C106.766 109.026 106.706 109.075 106.637 109.11C106.569 109.145 106.495 109.166 106.418 109.172L96.148 110.227L96.0895 110.18Z" fill="#231F20"/>
<path d="M137.276 109.266C136.288 109.29 135.301 109.262 134.316 109.184C134.161 109.156 134.023 109.067 133.933 108.938C133.843 108.808 133.809 108.648 133.837 108.493C133.864 108.337 133.953 108.199 134.082 108.109C134.212 108.019 134.372 107.984 134.527 108.012C135.076 108.118 138.831 108.118 144.037 108.012C143.534 105.012 141.428 92.6505 140.703 86.9206C140.686 86.7674 140.729 86.6135 140.823 86.4913C140.916 86.369 141.054 86.2877 141.206 86.2645C141.283 86.2546 141.361 86.2603 141.436 86.2809C141.51 86.3016 141.58 86.337 141.641 86.385C141.702 86.4329 141.753 86.4926 141.791 86.5604C141.828 86.6282 141.852 86.7029 141.861 86.78C142.68 93.1895 145.288 108.27 145.37 108.422C145.382 108.505 145.377 108.589 145.355 108.67C145.332 108.751 145.294 108.826 145.242 108.891C145.191 108.958 145.125 109.013 145.05 109.052C144.976 109.09 144.893 109.111 144.809 109.114C141.826 109.219 139.182 109.266 137.276 109.266Z" fill="#231F20"/>
<path d="M135.03 56.6657C135.03 56.6657 139.358 48.0065 137.72 45.745C136.082 43.4835 134.959 44.292 134.948 44.3037C136.702 43.05 134.62 40.4369 133.497 39.5581C132.607 38.9109 131.62 38.4087 130.573 38.07C128.019 37.0615 125.305 36.5179 122.56 36.4647C119.798 36.4325 117.105 37.3276 114.91 39.0074C111.553 41.7259 110.477 45.1708 110.839 49.3774C111.097 52.3888 112.009 55.3885 112.185 58.3413C115.624 58.6811 119.098 59.1147 122.584 59.1967C125.356 59.267 133.427 59.8763 135.03 56.6657Z" fill="white"/>
<path d="M126.269 59.8881C125.24 59.8881 124.269 59.8881 123.45 59.8881H122.573C119.73 59.8178 116.864 59.5131 114.092 59.2319L112.127 59.021C111.985 59.0072 111.853 58.9428 111.754 58.8396C111.655 58.7364 111.597 58.6012 111.589 58.4585C111.454 56.9114 111.228 55.3736 110.91 53.8535C110.641 52.4357 110.361 50.971 110.232 49.5181C109.834 44.8311 111.203 41.3158 114.525 38.6208C116.826 36.8476 119.658 35.9061 122.561 35.9492C125.366 35.9997 128.14 36.5553 130.749 37.5896C131.853 37.9511 132.894 38.4807 133.837 39.1598C134.761 39.8863 136.177 41.6205 136.177 43.1554C136.175 43.3543 136.144 43.5518 136.083 43.7413C136.941 44.0821 137.667 44.6901 138.154 45.4755C140.037 48.0534 135.721 56.6189 135.522 57.0173C134.293 59.4779 129.895 59.8881 126.269 59.8881ZM112.747 57.7906L114.221 57.9429C116.958 58.2359 119.8 58.5288 122.596 58.5991H123.497C126.398 58.7046 133.206 58.9389 134.492 56.3728C135.849 53.6543 138.317 47.5729 137.23 46.0731C136.142 44.5733 135.533 44.6436 135.288 44.7842C135.157 44.8698 134.999 44.9029 134.845 44.8768C134.691 44.8508 134.553 44.7675 134.457 44.6436C134.364 44.5141 134.325 44.3532 134.349 44.1954C134.374 44.0376 134.458 43.8956 134.586 43.7999C134.715 43.7162 134.821 43.6016 134.894 43.4666C134.968 43.3316 135.006 43.1804 135.007 43.0266C134.772 41.8215 134.096 40.7477 133.112 40.0152C132.273 39.4137 131.346 38.9472 130.363 38.6325C127.88 37.6356 125.236 37.1034 122.561 37.0623C119.942 37.0054 117.38 37.8307 115.285 39.4058C112.291 41.8314 111.062 44.9717 111.425 49.2603C111.554 50.6547 111.823 52.0959 112.08 53.4786C112.381 54.9026 112.603 56.3421 112.747 57.7906Z" fill="#231F20"/>
<path d="M131.146 57.8729C132.024 54.1468 138.34 53.6781 137.697 58.0956C137.54 59.637 136.844 61.0732 135.732 62.1498C135.167 62.6699 134.462 63.0109 133.704 63.1297C132.946 63.2486 132.17 63.14 131.474 62.8177" fill="white"/>
<path d="M133.018 63.8018C132.379 63.8033 131.749 63.6505 131.181 63.3565C131.041 63.2796 130.937 63.1504 130.891 62.9969C130.845 62.8434 130.861 62.6779 130.936 62.5363C131.013 62.3956 131.142 62.2909 131.295 62.2448C131.448 62.1988 131.613 62.2151 131.755 62.2902C132.344 62.5536 132.998 62.6373 133.634 62.531C134.271 62.4248 134.862 62.1332 135.334 61.6926C136.336 60.7119 136.961 59.4094 137.1 58.0133C137.358 56.1971 136.27 55.6698 135.603 55.5878C134.771 55.4444 133.916 55.6123 133.2 56.0595C132.484 56.5068 131.957 57.2021 131.72 58.0133C131.682 58.1687 131.585 58.3029 131.449 58.3864C131.313 58.4699 131.149 58.4959 130.994 58.4586C130.839 58.4213 130.705 58.3238 130.622 58.1875C130.539 58.0513 130.513 57.8875 130.55 57.7321C130.853 56.6187 131.562 55.6595 132.536 55.0436C133.511 54.4276 134.68 54.1995 135.814 54.4043C136.234 54.4706 136.635 54.6244 136.992 54.8558C137.35 55.0871 137.654 55.391 137.887 55.7476C138.119 56.1043 138.275 56.5059 138.343 56.9264C138.411 57.3469 138.39 57.7771 138.282 58.1891C138.1 59.8703 137.334 61.434 136.118 62.6066C135.259 63.3603 134.16 63.7839 133.018 63.8018Z" fill="#231F20"/>
<path d="M115.589 56.7362C115.261 52.9163 109.085 51.5336 109.073 55.998C109.002 57.5437 109.483 59.0643 110.43 60.2866C110.912 60.8864 111.56 61.3292 112.293 61.5587C113.026 61.7882 113.811 61.7941 114.548 61.5755" fill="white"/>
<path d="M113.483 62.3605C112.812 62.348 112.151 62.1909 111.545 61.8997C110.94 61.6086 110.404 61.1902 109.974 60.6732C108.938 59.3363 108.404 57.6774 108.465 55.9861C108.414 55.56 108.453 55.1279 108.58 54.7179C108.707 54.308 108.918 53.9293 109.201 53.6066C109.483 53.2839 109.83 53.0243 110.219 52.8448C110.609 52.6653 111.031 52.5698 111.46 52.5646C112.6 52.5546 113.705 52.9622 114.567 53.711C115.428 54.4598 115.987 55.498 116.138 56.6306C116.148 56.7104 116.141 56.7913 116.119 56.8683C116.096 56.9453 116.057 57.0168 116.006 57.0784C115.954 57.1399 115.891 57.1902 115.819 57.226C115.747 57.2619 115.669 57.2826 115.589 57.2868C115.431 57.2966 115.276 57.2447 115.156 57.1419C115.036 57.0391 114.96 56.8936 114.945 56.7361C114.833 55.8935 114.411 55.1233 113.762 54.5752C113.113 54.0272 112.284 53.7407 111.436 53.7715C110.746 53.7715 109.6 54.1231 109.588 55.951C109.517 57.3478 109.931 58.7261 110.758 59.8529C111.162 60.3546 111.705 60.727 112.317 60.9247C112.93 61.1225 113.587 61.1368 114.208 60.9661C114.283 60.9383 114.362 60.9256 114.441 60.9288C114.521 60.9321 114.599 60.9512 114.671 60.985C114.743 61.0189 114.807 61.0668 114.86 61.1259C114.913 61.185 114.954 61.2542 114.98 61.3293C115.033 61.4801 115.025 61.6457 114.957 61.7904C114.889 61.935 114.767 62.0472 114.618 62.1027C114.255 62.2463 113.872 62.3332 113.483 62.3605Z" fill="#231F20"/>
<path d="M114.759 75.6015C115.323 76.822 116.216 77.8598 117.339 78.5971C118.462 79.3344 119.768 79.7418 121.11 79.773C122.481 79.9109 123.864 79.691 125.125 79.1345C126.386 78.578 127.481 77.704 128.304 76.5975V73.9376L128.211 67.7977V62.0443L116.958 61.2124L116.244 65.8994L116.022 67.411L114.759 75.6015Z" fill="white"/>
<path d="M121.812 80.394C121.567 80.394 121.321 80.394 121.064 80.394C119.6 80.3621 118.175 79.9145 116.956 79.1035C115.736 78.2924 114.771 77.1512 114.174 75.8125C114.145 75.713 114.145 75.6074 114.174 75.5078L116.373 61.107C116.399 60.958 116.479 60.824 116.598 60.7309C116.717 60.6377 116.866 60.5922 117.016 60.6032L128.269 61.4234C128.421 61.4324 128.564 61.4993 128.668 61.6104C128.773 61.7215 128.831 61.8684 128.831 62.021L128.913 76.5859C128.916 76.706 128.884 76.8244 128.819 76.9257C128.015 78.025 126.958 78.9142 125.739 79.5179C124.519 80.1217 123.172 80.4222 121.812 80.394ZM115.344 75.5196C115.889 76.6077 116.723 77.5239 117.755 78.1669C118.787 78.8099 119.977 79.1549 121.192 79.1637C122.428 79.2935 123.677 79.108 124.822 78.6245C125.968 78.141 126.972 77.3752 127.743 76.3984L127.661 62.5951L117.519 61.8452L115.344 75.5196Z" fill="#231F20"/>
<path d="M116.021 67.3641C116.876 68.8141 118.083 70.0236 119.531 70.8794C121.87 72.4026 125.379 74.172 128.327 73.9376L128.21 67.7977C126.041 67.906 123.866 67.7605 121.73 67.3641C119.823 67.1557 117.96 66.6497 116.209 65.8643L116.021 67.3641Z" fill="#231F20"/>
<path d="M127.742 74.5469C124.514 74.5469 121.016 72.5901 119.156 71.3714C117.646 70.4521 116.391 69.1666 115.507 67.6335C115.467 67.5198 115.467 67.3957 115.507 67.282L115.729 65.7705C115.74 65.6787 115.774 65.5912 115.827 65.5156C115.88 65.4399 115.951 65.3786 116.033 65.3369C116.117 65.2964 116.209 65.2754 116.302 65.2754C116.395 65.2754 116.487 65.2964 116.571 65.3369C118.266 66.0856 120.064 66.5715 121.905 66.7782C124.002 67.171 126.138 67.3126 128.269 67.2C128.347 67.1949 128.426 67.2057 128.5 67.2319C128.575 67.2581 128.643 67.299 128.701 67.3523C128.76 67.4085 128.806 67.4757 128.839 67.5502C128.871 67.6246 128.888 67.7048 128.888 67.7859V73.9376C128.889 74.0852 128.834 74.2275 128.734 74.3361C128.634 74.4447 128.497 74.5116 128.35 74.5234L127.742 74.5469ZM116.63 67.2586C117.424 68.5382 118.511 69.6105 119.8 70.3872C121.203 71.3128 124.666 73.3634 127.695 73.3751V68.3952C125.68 68.445 123.666 68.288 121.683 67.9265C119.995 67.7251 118.335 67.332 116.735 66.7547L116.63 67.2586Z" fill="#231F20"/>
<path d="M121.73 68.7583L122.736 68.8286C125.022 68.9964 127.281 68.2474 129.017 66.7466C130.752 65.2457 131.821 63.1159 131.988 60.8256L132.994 47.1629L122.888 48.8971L114.7 45.8154L113.705 59.4898C113.621 60.6269 113.762 61.7695 114.12 62.8519C114.478 63.9342 115.047 64.9349 115.793 65.7964C116.538 66.6578 117.447 67.363 118.466 67.8713C119.485 68.3797 120.594 68.6811 121.73 68.7583Z" fill="white"/>
<path d="M123.391 69.4613H122.701L121.695 69.3793C119.249 69.1994 116.975 68.0542 115.372 66.1955C113.768 64.3367 112.967 61.9164 113.144 59.4663L114.174 45.7685C114.18 45.6756 114.209 45.5855 114.256 45.5055C114.304 45.4255 114.37 45.3577 114.448 45.3076C114.526 45.2575 114.615 45.2265 114.708 45.217C114.8 45.2075 114.894 45.2198 114.981 45.2529L122.97 48.2643L132.913 46.5653C133.004 46.5497 133.097 46.5542 133.186 46.5785C133.275 46.6028 133.357 46.6463 133.428 46.7059C133.494 46.7687 133.545 46.8455 133.577 46.9306C133.609 47.0158 133.622 47.1072 133.615 47.198L132.62 60.8724C132.449 63.2028 131.406 65.3826 129.699 66.9752C127.992 68.5678 125.747 69.4558 123.415 69.4613H123.391ZM121.777 68.1489L122.783 68.231C123.838 68.3076 124.897 68.1752 125.901 67.8415C126.904 67.5078 127.832 66.9793 128.632 66.2861C129.431 65.5929 130.087 64.7487 130.56 63.8017C131.034 62.8547 131.317 61.8234 131.392 60.7669L132.34 47.8776L122.982 49.4829C122.878 49.5058 122.77 49.5058 122.666 49.4829L115.343 46.7059L114.396 59.5952C114.318 60.6495 114.448 61.7089 114.779 62.7127C115.111 63.7165 115.636 64.645 116.326 65.445C117.016 66.245 117.857 66.9008 118.8 67.3748C119.744 67.8489 120.771 68.1318 121.824 68.2075L121.777 68.1489Z" fill="#231F20"/>
<path d="M123.461 62.1378C122.727 62.1351 121.996 62.0685 121.274 61.9386C121.118 61.9048 120.981 61.8109 120.894 61.6772C120.806 61.5434 120.774 61.3806 120.806 61.2238C120.821 61.1457 120.852 61.0714 120.896 61.0053C120.94 60.9392 120.998 60.8827 121.064 60.839C121.13 60.7954 121.205 60.7654 121.283 60.751C121.361 60.7366 121.442 60.738 121.519 60.7551C122.238 60.8785 122.966 60.9373 123.695 60.9309C123.648 58.9647 123.289 57.0186 122.63 55.1659C122.584 55.0105 122.601 54.8429 122.678 54.7001C122.755 54.5573 122.885 54.4508 123.04 54.4042C123.195 54.3576 123.362 54.3746 123.505 54.4515C123.647 54.5284 123.754 54.6589 123.8 54.8143C124.315 56.5251 125.426 60.6731 124.654 61.7277C124.576 61.8464 124.47 61.9445 124.346 62.0138C124.222 62.0831 124.083 62.1216 123.941 62.1261L123.461 62.1378Z" fill="#231F20"/>
<path d="M127.573 53.5936C127.633 52.7868 127.414 52.1132 127.086 52.0891C126.757 52.0649 126.443 52.6993 126.383 53.506C126.324 54.3128 126.543 54.9864 126.871 55.0106C127.2 55.0347 127.514 54.4003 127.573 53.5936Z" fill="#231F20"/>
<path d="M119.927 52.6614C119.986 51.8547 119.768 51.1811 119.439 51.1569C119.11 51.1328 118.796 51.7672 118.737 52.5739C118.678 53.3807 118.896 54.0543 119.225 54.0784C119.553 54.1026 119.868 53.4682 119.927 52.6614Z" fill="#231F20"/>
<path d="M122.946 65.0205H122.654C121.45 64.8925 120.284 64.52 119.228 63.9256C118.172 63.3313 117.248 62.5277 116.513 61.5638C116.465 61.5002 116.431 61.4278 116.412 61.3507C116.392 61.2736 116.388 61.1935 116.4 61.1149C116.412 61.0364 116.44 60.961 116.481 60.8932C116.523 60.8254 116.577 60.7666 116.642 60.7202C116.769 60.6256 116.929 60.5849 117.087 60.6068C117.244 60.6287 117.387 60.7115 117.484 60.8373C118.12 61.6587 118.913 62.345 119.817 62.856C120.721 63.367 121.717 63.6925 122.748 63.8136C124.923 63.8839 127.111 62.7004 129.263 60.2983C129.373 60.1949 129.517 60.1362 129.668 60.1334C129.819 60.1306 129.965 60.1841 130.079 60.2833C130.193 60.3826 130.266 60.5206 130.283 60.6706C130.301 60.8206 130.263 60.9719 130.175 61.0951C127.824 63.6847 125.403 65.0205 122.946 65.0205Z" fill="#231F20"/>
<path d="M330.025 145.871C328.037 132.501 301.951 126.807 301.951 126.807C301.951 126.807 293.763 88.7483 289.026 72.4141C282.756 50.514 279.598 29.5162 246.272 24.5949C212.946 19.6735 130.737 21.1734 107.634 24.5949C84.5321 28.0164 83.3857 24.5949 71.2672 46.6004C59.1487 68.6059 49.2528 126.807 49.2528 126.807C49.2528 126.807 31.1218 137.06 26.0568 147.582C20.9919 158.104 30.0222 204.506 33.7186 216.457C37.415 228.409 41.0997 232.675 51.9081 232.675C62.7164 232.675 288.839 235.522 309.005 229.546C329.171 223.57 332.014 159.253 330.025 145.871ZM286.85 111.152C286.452 115.429 285.68 118.651 280.569 120.257C278.027 120.963 275.404 121.329 272.766 121.346C272.018 121.346 271.222 121.346 270.368 121.346H76.3439C76.1038 121.345 75.8646 121.317 75.6304 121.264C73.2909 120.843 68.7523 118.323 67.0562 111.668C65.1612 104.262 79.2098 56.033 83.5612 45.206C88.17 33.7345 123.753 29.4108 166.671 29.7506C207.074 30.0669 257.911 32.3987 264.929 37.8122C271.948 43.2257 287.412 104.895 286.85 111.152Z" fill="#FEBB1B"/>
<path d="M118.665 198.811C118.665 198.811 109.576 168.65 109.857 165.51C110.138 162.369 112.407 158.397 114.255 157.835C116.103 157.272 234.001 156.405 236.844 158.397C239.686 160.389 241.394 163.518 241.113 165.803C240.833 168.088 235.709 195.401 234.294 198.811C232.878 202.221 123.531 204.787 118.665 198.811Z" fill="black"/>
<path d="M246.985 190.363C246.985 190.363 247.734 168.556 266.485 161.338C285.236 154.12 311.941 154.132 314.783 158.69C317.626 163.248 318.386 178.985 300.747 186.004C283.107 193.023 257.15 192.378 246.985 190.363Z" fill="white"/>
<path d="M264.614 192.308C258.67 192.384 252.732 191.929 246.869 190.949C246.733 190.921 246.611 190.846 246.525 190.736C246.439 190.627 246.395 190.49 246.401 190.351C246.401 190.129 247.383 168.088 266.286 160.8C284.78 153.687 312.105 153.265 315.287 158.374C316.936 161.011 317.685 166.576 315.907 171.943C314.421 176.489 310.619 182.711 300.993 186.555C290.102 190.89 276.136 192.308 264.614 192.308ZM247.594 189.894C257.888 191.781 283.201 192.378 300.548 185.465C309.766 181.786 313.415 175.88 314.784 171.58C316.644 165.908 315.509 160.94 314.292 158.995C311.661 154.789 285.049 154.835 266.696 161.889C250.097 168.275 247.863 186.625 247.594 189.894Z" fill="#231F20"/>
<path d="M105.505 191.886C105.505 191.886 101.528 163.623 82.9645 160.249C64.4007 156.874 41.6727 153.218 37.3447 160.249C33.0166 167.279 35.0754 179.606 47.0067 184.539C58.9381 189.472 96.2176 193.972 105.505 191.886Z" fill="white"/>
<path d="M98.4643 192.999C83.866 192.999 56.5292 189.074 46.7619 185.031C44.1384 184.028 41.7679 182.458 39.8189 180.432C37.87 178.407 36.3904 175.977 35.4856 173.314C34.738 171.109 34.4712 168.77 34.7033 166.453C34.9353 164.137 35.6608 161.897 36.8308 159.885C41.3343 152.621 63.0563 155.937 83.0706 159.616C90.861 161.046 97.3063 167.092 101.786 177.075C103.832 181.784 105.294 186.727 106.138 191.792C106.159 191.938 106.126 192.086 106.043 192.207C105.961 192.329 105.836 192.415 105.693 192.448C103.309 192.878 100.886 193.062 98.4643 192.999ZM50.9144 156.745C44.5744 156.745 39.5563 157.718 37.8134 160.507C36.7414 162.378 36.0823 164.459 35.8805 166.607C35.6788 168.756 35.939 170.923 36.6436 172.962C37.4919 175.462 38.8821 177.743 40.7144 179.641C42.5467 181.54 44.7757 183.008 47.2415 183.942C58.4125 188.558 94.7562 193.234 104.874 191.417C104.196 187.504 99.4118 163.823 82.8951 160.776C74.1805 159.194 60.9157 156.745 50.9144 156.745Z" fill="#231F20"/>
<path d="M222.655 215.321H128.877C124.193 215.321 120.396 219.125 120.396 223.816V235.85C120.396 240.542 124.193 244.346 128.877 244.346H222.655C227.339 244.346 231.136 240.542 231.136 235.85V223.816C231.136 219.125 227.339 215.321 222.655 215.321Z" fill="white"/>
<path d="M222.655 244.931H128.877C126.474 244.928 124.17 243.971 122.47 242.268C120.771 240.566 119.815 238.258 119.812 235.85V223.816C119.815 221.409 120.771 219.101 122.47 217.399C124.17 215.696 126.474 214.738 128.877 214.735H222.655C225.058 214.738 227.362 215.696 229.062 217.399C230.761 219.101 231.717 221.409 231.72 223.816V235.85C231.717 238.258 230.761 240.566 229.062 242.268C227.362 243.971 225.058 244.928 222.655 244.931ZM128.877 215.907C126.783 215.907 124.775 216.74 123.294 218.224C121.813 219.707 120.981 221.719 120.981 223.816V235.85C120.984 237.947 121.817 239.957 123.297 241.44C124.777 242.922 126.784 243.757 128.877 243.76H222.655C224.748 243.757 226.755 242.922 228.235 241.44C229.715 239.957 230.548 237.947 230.551 235.85V223.816C230.551 221.719 229.719 219.707 228.238 218.224C226.757 216.74 224.749 215.907 222.655 215.907H128.877Z" fill="#231F20"/>
<path d="M44.8079 220.442C44.8079 220.442 45.0886 208.49 49.6272 205.924C54.1658 203.357 87.983 204.752 91.7378 205.924C95.4927 207.095 100.827 219.012 100.254 220.442C99.6803 221.871 96.2764 223.851 95.4342 223.57C94.592 223.289 44.4219 224.695 44.8079 220.442Z" fill="white"/>
<path d="M95.5275 224.179C95.4118 224.18 95.297 224.16 95.1883 224.121C94.9426 224.121 92.3692 224.121 89.3396 224.121C67.5122 224.25 46.9833 224.004 44.5035 221.309C44.3848 221.19 44.293 221.046 44.2345 220.889C44.1759 220.731 44.152 220.562 44.1643 220.395C44.1643 219.703 44.5503 208.068 49.2877 205.408C54.0252 202.748 88.3336 204.236 91.796 205.408C94.7204 206.31 97.867 212.509 98.8144 214.384C99.3759 215.555 101.154 219.539 100.733 220.699C100.138 221.596 99.3719 222.365 98.4784 222.962C97.5849 223.559 96.5818 223.973 95.5275 224.179ZM93.4921 222.937C94.1793 222.885 94.8701 222.913 95.5509 223.019C96.1357 223.09 99.1654 221.437 99.6567 220.219C99.9608 218.918 94.8958 207.529 91.4685 206.486C87.7955 205.314 54.2474 203.978 49.8843 206.486C45.5212 208.993 45.3574 220.383 45.3574 220.547C46.0709 222.363 60.8798 223.195 89.363 223.031L93.4921 222.937Z" fill="#231F20"/>
<path d="M311.275 220.442C311.275 220.442 310.994 208.49 306.456 205.924C301.917 203.357 268.1 204.752 264.404 205.924C260.707 207.095 255.315 219.012 255.888 220.442C256.461 221.871 259.865 223.851 260.707 223.57C261.549 223.289 311.661 224.695 311.275 220.442Z" fill="white"/>
<path d="M260.519 224.191C258.396 223.753 256.532 222.489 255.338 220.676C254.881 219.504 256.694 215.544 257.256 214.36C258.157 212.486 261.303 206.287 264.274 205.385C267.784 204.319 301.928 202.702 306.783 205.385C311.637 208.068 311.894 219.68 311.906 220.372C311.918 220.539 311.894 220.708 311.836 220.866C311.777 221.023 311.686 221.167 311.567 221.286C309.087 223.981 288.558 224.227 266.731 224.098C263.76 224.098 261.186 224.098 260.882 224.098C260.766 224.147 260.644 224.178 260.519 224.191ZM290.149 205.068C279.305 205.068 266.754 205.818 264.578 206.486C261.186 207.529 256.121 218.919 256.39 220.243C256.659 221.567 259.899 223.102 260.496 223.008C262.545 222.891 264.6 222.891 266.649 223.008C295.179 223.184 309.988 222.34 310.654 220.512C310.654 220.395 310.327 208.865 306.128 206.451C304.373 205.432 297.682 205.068 290.149 205.068Z" fill="#231F20"/>
<path d="M226.913 167.584H123.427C122.768 167.584 122.233 168.116 122.233 168.773C122.233 169.43 122.768 169.963 123.427 169.963H226.913C227.572 169.963 228.106 169.43 228.106 168.773C228.106 168.116 227.572 167.584 226.913 167.584Z" fill="white"/>
<path d="M226.913 176.583H123.427C122.768 176.583 122.233 177.115 122.233 177.772C122.233 178.429 122.768 178.962 123.427 178.962H226.913C227.572 178.962 228.106 178.429 228.106 177.772C228.106 177.115 227.572 176.583 226.913 176.583Z" fill="white"/>
<path d="M226.913 185.582H123.427C122.768 185.582 122.233 186.115 122.233 186.771C122.233 187.428 122.768 187.961 123.427 187.961H226.913C227.572 187.961 228.106 187.428 228.106 186.771C228.106 186.115 227.572 185.582 226.913 185.582Z" fill="white"/>
<path d="M32.2099 149.41C32.0548 149.41 31.906 149.348 31.7963 149.239C31.6866 149.129 31.625 148.98 31.625 148.824C31.625 148.669 31.6866 148.52 31.7963 148.41C31.906 148.3 32.0548 148.238 32.2099 148.238C33.4849 148.238 161.606 148.238 322.948 145.368C323.1 145.373 323.244 145.435 323.352 145.541C323.46 145.648 323.525 145.79 323.533 145.942C323.535 146.019 323.521 146.095 323.493 146.167C323.465 146.239 323.424 146.304 323.37 146.36C323.317 146.415 323.253 146.46 323.183 146.49C323.113 146.521 323.037 146.538 322.96 146.539C161.618 149.375 33.4615 149.41 32.2099 149.41Z" fill="#231F20"/>
<path d="M277.539 121.909H75.6308C75.4757 121.909 75.3269 121.847 75.2172 121.737C75.1075 121.628 75.0459 121.479 75.0459 121.323C75.0489 121.169 75.1115 121.021 75.2205 120.912C75.3296 120.803 75.4766 120.74 75.6308 120.737H277.539C277.694 120.737 277.843 120.799 277.953 120.909C278.063 121.019 278.124 121.168 278.124 121.323C278.124 121.479 278.063 121.628 277.953 121.737C277.843 121.847 277.694 121.909 277.539 121.909Z" fill="#231F20"/>
<path d="M291.974 112.547C291.565 117.046 290.746 120.421 285.388 122.108C282.723 122.859 279.969 123.253 277.2 123.28C276.416 123.28 275.574 123.28 274.685 123.28H71.0103C70.7625 123.279 70.5155 123.251 70.2734 123.198C67.8052 122.741 63.0444 120.104 61.2664 113.121C59.2778 105.352 74.0166 57.779 78.6019 46.413C83.433 34.4025 120.794 27.5595 165.841 27.9579C208.256 28.286 261.572 33.0316 269.024 38.7146C276.475 44.3976 292.594 105.973 291.974 112.547Z" fill="white"/>
<path d="M189.809 33.3247H163.63C161.892 33.3247 160.483 34.7359 160.483 36.4767V39.2655C160.483 41.0063 161.892 42.4175 163.63 42.4175H189.809C191.547 42.4175 192.955 41.0063 192.955 39.2655V36.4767C192.955 34.7359 191.547 33.3247 189.809 33.3247Z" fill="#FEBB1B"/>
<path d="M174.614 29.0127C174.614 29.0127 174.228 34.9652 174.954 35.7385C175.389 36.154 175.967 36.3858 176.568 36.3858C177.169 36.3858 177.747 36.154 178.182 35.7385C179.071 34.7894 178.907 29.0127 178.907 29.0127H174.614Z" fill="black"/>
<path d="M280.276 120.269C277.741 120.969 275.126 121.335 272.497 121.358C271.737 121.358 270.93 121.358 270.088 121.358H76.0046C75.7691 121.355 75.5343 121.331 75.3027 121.288C76.683 110.074 80.087 89.9437 86.8013 87.4947C89.8403 86.7605 92.9515 86.3674 96.0773 86.323C108.02 85.5848 128.421 85.7254 145.803 86.323C162.437 86.9089 176.31 87.9166 177.386 88.9594C178.938 90.4951 179.952 92.493 180.275 94.6541C180.275 94.6541 180.275 89.8148 183.679 88.6782C185.13 88.1861 200.851 86.9792 218.771 86.241C236.692 85.5028 256.717 85.2215 266.812 86.6042C270.322 87.0846 272.579 87.776 273.199 88.6782C276.053 92.9199 278.767 109.805 280.276 120.269Z" fill="#D1D3D4"/>
<path d="M40.9713 105.751C40.9713 105.751 19.3779 100.255 12.7572 110.438C6.13651 120.62 12.1841 125.612 22.9807 126.749C33.7774 127.885 40.597 128.647 42.6791 126.749C44.7613 124.85 44.3753 108.352 42.6791 107.028L40.9713 105.751Z" fill="black"/>
<path d="M42.1993 123.491L53.1831 125.389L51.3934 130.135L37.9414 126.818L42.1993 123.491Z" fill="black"/>
<path d="M308.701 105.751C308.701 105.751 330.294 100.255 336.926 110.438C343.559 120.62 337.488 125.612 326.691 126.749C315.894 127.885 309.075 128.647 306.993 126.749C304.911 124.85 305.297 108.352 306.993 107.028L308.701 105.751Z" fill="black"/>
<path d="M307.473 123.491L296.489 125.389L298.279 130.135L311.731 126.818L307.473 123.491Z" fill="black"/>
<path d="M31.8828 202.701H66.7293V249.642C66.72 252.383 65.6265 255.008 63.6883 256.943C61.7501 258.878 59.1252 259.965 56.3888 259.965H42.2116C39.4691 259.965 36.839 258.873 34.8998 256.931C32.9605 254.988 31.8711 252.354 31.8711 249.606V202.701H31.8828Z" fill="black"/>
<path d="M283.236 202.701H318.083V249.642C318.083 252.389 316.993 255.023 315.054 256.966C313.115 258.909 310.485 260 307.742 260H293.577C290.834 260 288.204 258.909 286.265 256.966C284.326 255.023 283.236 252.389 283.236 249.642V202.701Z" fill="black"/>
<path d="M102.312 59.4077H140.727C144.995 59.4077 149.089 61.1064 152.108 64.1301C155.126 67.1538 156.822 71.2549 156.822 75.531V130.135H86.2168V75.531C86.2168 73.4137 86.6331 71.3171 87.442 69.3609C88.2509 67.4047 89.4365 65.6273 90.9311 64.1301C92.4257 62.6329 94.2001 61.4453 96.1529 60.635C98.1057 59.8248 100.199 59.4077 102.312 59.4077Z" fill="black"/>
<path d="M214.888 59.4077H253.302C257.571 59.4077 261.665 61.1064 264.683 64.1301C267.702 67.1538 269.397 71.2549 269.397 75.531V130.135H198.792V75.531C198.792 71.2549 200.488 67.1538 203.506 64.1301C206.525 61.1064 210.619 59.4077 214.888 59.4077Z" fill="black"/>
<path d="M86.4269 138.021C85.4282 131.701 84.8149 125.327 84.5904 118.933C79.3383 119.015 90.0999 82.9248 97.5394 77.9214C111.062 68.7701 132.573 64.8213 146.832 81.5421C151.336 86.8267 161.021 101.931 159.828 114.14C159.489 117.562 155.149 118.956 150.248 119.038C149.403 126.274 149.18 133.57 149.581 140.844L86.4269 138.021Z" fill="#FEBB1B"/>
<path d="M127.953 75.6603L123.964 99.8804L120.899 110.52L117.823 99.8569L114.431 75.6017C118.82 74.1208 123.576 74.1414 127.953 75.6603Z" fill="#231F20"/>
<path d="M120.9 85.7255L117.285 82.9367L120.9 80.1362L124.514 82.9367L120.9 85.7255Z" fill="white"/>
<path d="M123.976 99.8801L120.9 110.531L117.823 99.8567L119.683 84.2021L119.73 83.8857H122.081L122.116 84.2255L123.976 99.8801Z" fill="white"/>
<path d="M136.398 108.68C119.472 95.0642 103.224 74.0664 103.224 74.0664C101.196 74.5723 99.3209 75.5657 97.7617 76.9606C101.072 84.7879 116.478 100.126 129.544 110.449C131.71 109.469 134.029 108.871 136.398 108.68Z" fill="black"/>
<path d="M119.624 106.758C114.49 106.757 109.524 108.588 105.616 111.923C101.709 115.258 99.1146 119.878 98.2998 124.956H104.499C105.274 121.515 107.194 118.442 109.944 116.239C112.694 114.037 116.109 112.837 119.63 112.837C123.151 112.837 126.566 114.037 129.316 116.239C132.066 118.442 133.986 121.515 134.761 124.956H140.96C140.143 119.877 137.546 115.257 133.637 111.922C129.727 108.587 124.759 106.757 119.624 106.758Z" fill="white"/>
<path d="M110.851 110.426C112.334 111.425 113.686 112.606 114.875 113.941C115.425 114.503 116.045 115.417 115.437 115.98C114.829 116.542 114.185 116.167 113.6 115.851L109.19 113.507C110.895 114.228 112.288 115.532 113.121 117.187C113.255 117.377 113.336 117.599 113.355 117.831C113.324 118.031 113.224 118.214 113.072 118.347C112.92 118.48 112.726 118.555 112.524 118.558C112.115 118.564 111.712 118.463 111.354 118.265C109.401 117.409 108.418 116.777 106.465 115.921C107.483 116.542 107.986 116.519 109.003 117.093C110.021 117.667 111.822 119.437 111.343 120.163C111.145 120.396 110.879 120.56 110.583 120.632C110.286 120.703 109.975 120.679 109.693 120.561C108.256 120.221 106.842 119.79 105.459 119.272C106.671 119.573 107.724 120.323 108.407 121.37C108.515 121.516 108.576 121.692 108.582 121.874C108.582 122.413 107.787 122.471 107.272 122.331C104.745 121.616 102.499 119.894 99.8793 119.659C99.2291 119.708 98.5816 119.535 98.0428 119.167C96.1712 117.351 99.7155 113.308 101.178 112.137C104.313 109.781 107.155 108.153 110.851 110.426Z" fill="white"/>
<path d="M107.786 122.952C107.573 122.949 107.361 122.921 107.155 122.87C106.098 122.539 105.069 122.124 104.078 121.628C102.77 120.919 101.349 120.444 99.8789 120.222H99.6332C98.9299 120.246 98.2412 120.017 97.6915 119.577C97.4316 119.329 97.2321 119.025 97.1084 118.688C96.9847 118.351 96.94 117.989 96.9779 117.632C97.1183 115.417 99.6215 112.605 100.873 111.668C103.961 109.324 107.073 107.449 111.179 109.934C112.698 110.93 114.089 112.111 115.319 113.449C116.325 114.492 116.489 115.605 115.881 116.308C115.495 116.706 114.711 117.034 113.354 116.308L113.658 116.788C113.845 117.076 113.954 117.407 113.974 117.749C113.941 118.095 113.784 118.417 113.532 118.656C113.281 118.894 112.952 119.034 112.606 119.05C112.321 119.07 112.035 119.034 111.763 118.944C111.885 119.139 111.972 119.353 112.021 119.577C112.061 119.723 112.069 119.876 112.045 120.026C112.021 120.176 111.965 120.318 111.88 120.444C111.617 120.776 111.256 121.016 110.849 121.132C110.442 121.247 110.009 121.232 109.611 121.089L108.886 120.901L108.956 121.007C109.135 121.26 109.229 121.563 109.225 121.874C109.213 122.032 109.166 122.186 109.087 122.324C109.008 122.462 108.899 122.58 108.769 122.67C108.479 122.865 108.135 122.963 107.786 122.952ZM107.307 109.98C105.306 109.98 103.528 111.152 101.552 112.64C100.452 113.484 98.2295 116.038 98.1243 117.749C98.1024 117.936 98.1226 118.126 98.1833 118.304C98.244 118.483 98.3437 118.645 98.4752 118.78C98.824 119.002 99.232 119.113 99.6449 119.097H99.9023C101.516 119.322 103.077 119.834 104.511 120.608C105.446 121.074 106.416 121.466 107.412 121.78C107.588 121.827 107.774 121.827 107.95 121.78L107.892 121.686C107.456 121.025 106.85 120.494 106.137 120.151L105.236 119.823C105.097 119.768 104.983 119.663 104.917 119.529C104.85 119.395 104.834 119.241 104.874 119.097C104.92 118.954 105.017 118.834 105.147 118.761C105.277 118.687 105.43 118.665 105.576 118.698C105.921 118.789 106.257 118.911 106.581 119.061C107.634 119.425 108.722 119.729 109.798 119.987C110.325 120.116 110.629 120.128 110.828 119.823C110.306 118.917 109.566 118.155 108.675 117.609H108.605L107.74 117.163L107.482 117.07C107.013 116.888 106.559 116.669 106.125 116.413C105.987 116.342 105.883 116.218 105.836 116.07C105.789 115.922 105.802 115.761 105.874 115.622C105.945 115.484 106.068 115.38 106.216 115.333C106.365 115.285 106.525 115.299 106.663 115.37C107.248 115.628 107.751 115.874 108.219 116.097C108.574 116.245 108.918 116.417 109.248 116.613C109.939 116.964 110.629 117.316 111.588 117.714C111.858 117.862 112.158 117.95 112.465 117.972C112.524 117.967 112.581 117.948 112.632 117.918C112.683 117.888 112.726 117.846 112.758 117.796C112.723 117.683 112.672 117.577 112.606 117.48C112.051 116.476 111.318 115.582 110.442 114.843L108.909 114.011C108.772 113.947 108.666 113.832 108.612 113.69C108.558 113.549 108.561 113.392 108.62 113.252C108.679 113.113 108.789 113.002 108.928 112.942C109.067 112.883 109.224 112.88 109.365 112.933C109.986 113.143 110.568 113.456 111.085 113.859L113.869 115.359C114.419 115.652 114.863 115.745 115.039 115.593C115.214 115.441 114.898 114.808 114.477 114.421C113.322 113.133 112.009 111.995 110.57 111.035C109.604 110.38 108.472 110.014 107.307 109.98Z" fill="#231F20"/>
<path d="M129.848 109.641C128.361 110.633 127.008 111.815 125.824 113.156C125.275 113.719 124.655 114.632 125.251 115.195C125.848 115.757 126.515 115.382 127.088 115.066L131.498 112.723C129.794 113.44 128.404 114.745 127.579 116.402C127.445 116.592 127.364 116.814 127.345 117.046C127.373 117.247 127.473 117.431 127.625 117.565C127.778 117.698 127.973 117.772 128.176 117.773C128.584 117.775 128.986 117.674 129.345 117.48C131.299 116.624 132.281 115.992 134.223 115.136C133.217 115.757 132.714 115.734 131.697 116.308C130.679 116.882 128.877 118.652 129.357 119.378C129.553 119.613 129.819 119.778 130.116 119.849C130.413 119.921 130.725 119.896 131.006 119.776C132.44 119.436 133.85 119.005 135.229 118.488C134.02 118.789 132.971 119.538 132.293 120.585C132.185 120.731 132.124 120.907 132.118 121.089C132.118 121.628 132.913 121.686 133.428 121.546C135.954 120.831 138.2 119.109 140.82 118.874C141.467 118.923 142.11 118.749 142.645 118.382C144.517 116.566 140.973 112.453 139.51 111.352C136.399 108.985 133.603 107.368 129.848 109.641Z" fill="white"/>
<path d="M132.89 122.167C132.551 122.179 132.217 122.09 131.931 121.909C131.8 121.817 131.692 121.696 131.615 121.556C131.538 121.416 131.494 121.26 131.486 121.101C131.478 120.793 131.573 120.492 131.755 120.245L131.825 120.14L131.1 120.315C130.704 120.466 130.27 120.486 129.862 120.372C129.454 120.258 129.092 120.017 128.831 119.683C128.747 119.556 128.691 119.414 128.665 119.265C128.638 119.116 128.643 118.963 128.679 118.816C128.736 118.594 128.823 118.381 128.936 118.183C128.669 118.272 128.387 118.308 128.106 118.288C127.759 118.273 127.43 118.133 127.179 117.894C126.927 117.655 126.77 117.333 126.737 116.988C126.752 116.644 126.861 116.312 127.053 116.027L127.357 115.546C125.965 116.296 125.216 115.968 124.819 115.546C124.152 114.843 124.374 113.718 125.392 112.687C126.617 111.344 128.008 110.162 129.533 109.172C133.638 106.688 136.75 108.574 139.826 110.895C141.078 111.844 143.593 114.656 143.722 116.871C143.755 117.227 143.709 117.585 143.588 117.922C143.467 118.258 143.273 118.563 143.02 118.816C142.47 119.255 141.781 119.483 141.078 119.46H140.832C139.358 119.683 137.934 120.158 136.621 120.866C135.63 121.361 134.602 121.777 133.545 122.108C133.33 122.155 133.11 122.174 132.89 122.167ZM134.481 119.331C133.775 119.686 133.174 120.219 132.738 120.878C132.668 120.995 132.656 121.042 132.644 121.042C132.632 121.042 132.937 121.042 133.217 120.948C134.214 120.637 135.185 120.245 136.118 119.776C137.551 119.006 139.106 118.49 140.715 118.253H140.984C141.398 118.273 141.807 118.162 142.154 117.937C142.292 117.806 142.395 117.644 142.456 117.465C142.518 117.285 142.534 117.093 142.505 116.906C142.411 115.195 140.166 112.64 139.078 111.797C136.118 109.57 133.58 108.024 130.094 110.145C128.653 111.102 127.34 112.24 126.187 113.531C125.766 113.965 125.427 114.55 125.614 114.703C125.801 114.855 126.211 114.761 126.784 114.468L129.568 112.957C130.085 112.557 130.666 112.248 131.287 112.043C131.426 111.999 131.575 112.009 131.707 112.069C131.839 112.13 131.944 112.237 132.001 112.371C132.06 112.506 132.066 112.657 132.018 112.796C131.97 112.935 131.872 113.051 131.743 113.121L130.199 113.953C129.33 114.695 128.601 115.588 128.047 116.589C127.978 116.685 127.926 116.792 127.895 116.906C127.895 116.906 128.024 117.058 128.187 117.07C128.496 117.062 128.797 116.978 129.065 116.824C129.977 116.425 130.679 116.074 131.404 115.722C131.733 115.522 132.077 115.35 132.434 115.207C132.89 114.972 133.393 114.738 133.978 114.48C134.115 114.422 134.269 114.417 134.41 114.467C134.551 114.517 134.668 114.618 134.738 114.75C134.807 114.883 134.822 115.037 134.78 115.181C134.739 115.324 134.644 115.447 134.516 115.523C134.087 115.777 133.637 115.993 133.171 116.167L132.913 116.273L132.036 116.718H131.966C130.995 117.316 129.837 118.628 129.848 119.062C129.86 119.495 130.328 119.273 130.843 119.144C131.931 118.886 133.007 118.57 134.071 118.218C134.392 118.061 134.73 117.939 135.077 117.855C135.232 117.81 135.399 117.828 135.54 117.906C135.682 117.984 135.787 118.115 135.832 118.271C135.877 118.426 135.858 118.593 135.78 118.735C135.702 118.877 135.572 118.981 135.416 119.027C135.112 119.12 134.808 119.237 134.504 119.355L134.481 119.331Z" fill="#231F20"/>
<path d="M95.7624 110.18C95.6685 110.18 95.576 110.157 95.4927 110.114C95.4094 110.07 95.3377 110.007 95.2838 109.93C95.2299 109.853 95.1953 109.765 95.1829 109.671C95.1705 109.578 95.1806 109.483 95.2126 109.395C95.2126 109.395 99.8915 96.2008 102.442 88.6547C102.502 88.5211 102.61 88.415 102.744 88.3573C102.879 88.2996 103.03 88.2946 103.168 88.3431C103.306 88.3917 103.421 88.4904 103.49 88.6196C103.559 88.7489 103.577 88.8994 103.541 89.0414C101.342 95.4274 97.6924 105.856 96.6163 108.961L105.974 108.012C106.051 108.004 106.129 108.011 106.203 108.033C106.277 108.056 106.346 108.092 106.406 108.141C106.465 108.19 106.515 108.251 106.551 108.319C106.588 108.387 106.61 108.462 106.618 108.539C106.626 108.616 106.618 108.693 106.596 108.766C106.574 108.84 106.537 108.908 106.488 108.967C106.439 109.026 106.378 109.075 106.31 109.11C106.242 109.145 106.168 109.166 106.091 109.172L95.8208 110.227L95.7624 110.18Z" fill="#231F20"/>
<path d="M136.948 109.266C135.961 109.29 134.973 109.262 133.989 109.184C133.834 109.156 133.696 109.067 133.606 108.938C133.516 108.808 133.481 108.648 133.509 108.493C133.537 108.337 133.626 108.199 133.755 108.109C133.885 108.019 134.044 107.984 134.2 108.012C134.749 108.118 138.504 108.118 143.721 108.012C143.207 105.012 141.101 92.6505 140.376 86.9206C140.359 86.7674 140.402 86.6135 140.496 86.4913C140.589 86.369 140.727 86.2877 140.879 86.2645C140.956 86.2546 141.034 86.2603 141.108 86.2809C141.183 86.3016 141.253 86.337 141.314 86.385C141.375 86.4329 141.426 86.4926 141.463 86.5604C141.501 86.6282 141.525 86.7029 141.534 86.78C142.364 93.1895 144.961 108.27 145.043 108.422C145.055 108.505 145.05 108.589 145.027 108.67C145.005 108.751 144.967 108.826 144.914 108.891C144.864 108.958 144.798 109.013 144.723 109.052C144.648 109.09 144.566 109.111 144.482 109.114C141.499 109.219 138.855 109.266 136.948 109.266Z" fill="#231F20"/>
<path d="M134.702 56.6657C134.702 56.6657 139.03 48.0065 137.393 45.745C135.755 43.4835 134.632 44.292 134.621 44.3037C136.375 43.05 134.293 40.4369 133.17 39.5581C132.28 38.9109 131.293 38.4087 130.246 38.07C127.692 37.0603 124.978 36.5166 122.233 36.4647C119.471 36.4325 116.778 37.3276 114.583 39.0074C111.226 41.7259 110.15 45.1708 110.512 49.3774C110.77 52.3888 111.682 55.3885 111.857 58.3413C115.296 58.6811 118.771 59.1147 122.256 59.1967C125.029 59.267 133.1 59.8763 134.702 56.6657Z" fill="white"/>
<path d="M125.942 59.8884C124.912 59.8884 123.941 59.8884 123.123 59.8884H122.245C119.403 59.8181 116.537 59.5134 113.765 59.2322L111.835 58.9393C111.693 58.9255 111.56 58.8611 111.461 58.7579C111.363 58.6547 111.304 58.5195 111.296 58.3768C111.168 56.829 110.941 55.2909 110.618 53.7718C110.319 52.3396 110.096 50.8924 109.951 49.4363C109.542 44.7493 110.91 41.2341 114.244 38.5391C116.542 36.7684 119.37 35.827 122.269 35.8675C125.074 35.918 127.848 36.4736 130.457 37.5079C131.561 37.8694 132.602 38.399 133.545 39.0781C134.469 39.8046 135.884 41.5387 135.884 43.0737C135.881 43.2716 135.853 43.4684 135.803 43.6596C136.657 44.0067 137.381 44.6132 137.873 45.3938C139.745 47.9717 135.428 56.5372 135.229 56.9356C133.966 59.4783 129.568 59.8884 125.942 59.8884ZM112.419 57.7909L113.893 57.9433C116.63 58.2362 119.473 58.5291 122.269 58.5994H123.169C126.07 58.7049 132.878 58.9393 134.165 56.3731C135.533 53.6547 137.99 47.5733 136.902 46.0734C135.814 44.5736 135.206 44.6439 134.96 44.7845C134.83 44.8556 134.678 44.8764 134.533 44.8431C134.388 44.8097 134.261 44.7245 134.175 44.6034C134.088 44.4824 134.049 44.3339 134.065 44.1859C134.08 44.038 134.149 43.9008 134.258 43.8002C134.39 43.719 134.497 43.6049 134.571 43.4694C134.645 43.3338 134.682 43.1813 134.68 43.0269C134.444 41.8218 133.768 40.748 132.785 40.0155C131.947 39.4117 131.019 38.945 130.036 38.6328C127.552 37.637 124.908 37.1048 122.234 37.0627C119.615 37.0057 117.053 37.831 114.958 39.4062C111.963 41.8317 110.735 44.972 111.098 49.2606C111.226 50.655 111.495 52.0962 111.753 53.4789C112.053 54.903 112.276 56.3425 112.419 57.7909Z" fill="#231F20"/>
<path d="M130.819 57.8729C131.697 54.1468 138.013 53.6781 137.37 58.0956C137.213 59.637 136.517 61.0732 135.405 62.1498C134.84 62.6699 134.135 63.0109 133.377 63.1297C132.619 63.2486 131.843 63.14 131.147 62.8177" fill="white"/>
<path d="M132.691 63.8018C132.052 63.8033 131.422 63.6505 130.854 63.3565C130.714 63.2796 130.609 63.1504 130.563 62.9969C130.517 62.8434 130.534 62.6779 130.609 62.5363C130.685 62.3956 130.814 62.2909 130.968 62.2448C131.121 62.1988 131.286 62.2151 131.428 62.2902C132.017 62.5551 132.671 62.6397 133.307 62.5333C133.944 62.427 134.536 62.1345 135.007 61.6926C136.009 60.7119 136.634 59.4094 136.773 58.0133C137.042 56.1971 135.943 55.6698 135.276 55.5878C134.446 55.4475 133.594 55.6169 132.88 56.0639C132.167 56.5109 131.641 57.2045 131.404 58.0133C131.367 58.1687 131.27 58.3029 131.134 58.3864C130.998 58.4699 130.834 58.4959 130.679 58.4586C130.524 58.4213 130.39 58.3238 130.306 58.1875C130.223 58.0513 130.197 57.8875 130.234 57.7321C130.538 56.6187 131.246 55.6595 132.221 55.0436C133.195 54.4276 134.364 54.1995 135.498 54.4043C135.918 54.4706 136.32 54.6244 136.677 54.8558C137.034 55.0871 137.339 55.391 137.571 55.7476C137.804 56.1043 137.959 56.5059 138.027 56.9264C138.095 57.3469 138.075 57.7771 137.966 58.1891C137.785 59.8703 137.019 61.434 135.802 62.6066C134.94 63.3629 133.837 63.7867 132.691 63.8018Z" fill="#231F20"/>
<path d="M115.262 56.7362C114.934 52.9163 108.758 51.5336 108.746 55.998C108.675 57.5437 109.156 59.0643 110.103 60.2866C110.584 60.8864 111.233 61.3292 111.966 61.5587C112.699 61.7882 113.484 61.7941 114.221 61.5755" fill="white"/>
<path d="M113.156 62.3605C112.484 62.348 111.823 62.1909 111.218 61.8997C110.612 61.6086 110.077 61.1902 109.647 60.6732C108.611 59.3363 108.077 57.6774 108.138 55.9861C108.087 55.559 108.126 55.1259 108.254 54.7152C108.381 54.3044 108.594 53.9252 108.877 53.6022C109.161 53.2793 109.51 53.02 109.9 52.8412C110.291 52.6624 110.715 52.5682 111.144 52.5646C112.285 52.5546 113.39 52.9622 114.251 53.711C115.113 54.4598 115.672 55.498 115.823 56.6306C115.836 56.7905 115.786 56.949 115.683 57.0718C115.58 57.1947 115.433 57.2719 115.273 57.2868C115.114 57.2998 114.955 57.2493 114.833 57.1462C114.71 57.0431 114.633 56.8957 114.618 56.7361C114.505 55.8935 114.084 55.1233 113.435 54.5752C112.786 54.0272 111.957 53.7407 111.109 53.7715C110.419 53.7715 109.272 54.1231 109.272 55.951C109.196 57.3485 109.61 58.7288 110.442 59.8529C110.851 60.3656 111.403 60.745 112.028 60.9432C112.653 61.1413 113.322 61.1493 113.951 60.9661C114.026 60.9383 114.105 60.9256 114.184 60.9288C114.264 60.9321 114.342 60.9512 114.414 60.985C114.486 61.0189 114.55 61.0668 114.603 61.1259C114.656 61.185 114.697 61.2542 114.723 61.3293C114.776 61.4801 114.768 61.6457 114.7 61.7904C114.632 61.935 114.51 62.0472 114.361 62.1027C113.976 62.2535 113.569 62.3405 113.156 62.3605Z" fill="#231F20"/>
<path d="M114.431 75.6015C114.994 76.822 115.888 77.8597 117.011 78.5971C118.134 79.3344 119.44 79.7418 120.782 79.7729C122.153 79.9109 123.536 79.691 124.797 79.1345C126.058 78.578 127.153 77.704 127.976 76.5975V73.9376V67.7859V62.0326L116.735 61.2007L116.01 65.8877L115.788 67.3993L114.431 75.6015Z" fill="white"/>
<path d="M121.485 80.394C121.239 80.394 120.994 80.394 120.736 80.394C119.279 80.3597 117.861 79.9136 116.647 79.1071C115.432 78.3006 114.469 77.1666 113.87 75.8358C113.847 75.7356 113.847 75.6314 113.87 75.5312L116.081 61.1304C116.104 60.9823 116.181 60.8484 116.298 60.7551C116.415 60.6618 116.563 60.6159 116.712 60.6265L127.965 61.4467C128.117 61.4557 128.26 61.5226 128.364 61.6337C128.469 61.7448 128.527 61.8917 128.527 62.0443L128.608 76.6092C128.612 76.7293 128.58 76.8477 128.515 76.949C127.706 78.0473 126.645 78.934 125.421 79.5337C124.197 80.1335 122.847 80.4286 121.485 80.394ZM115.051 75.5195C115.591 76.5946 116.413 77.5019 117.429 78.144C118.445 78.7861 119.617 79.1386 120.818 79.1636C122.054 79.2934 123.303 79.1079 124.448 78.6244C125.593 78.1409 126.598 77.3751 127.369 76.3983L127.287 62.595L117.145 61.8451L115.051 75.5195Z" fill="#231F20"/>
<path d="M115.694 67.3641C116.552 68.8116 117.758 70.0204 119.204 70.8794C121.543 72.4026 125.052 74.172 128 73.9376V67.7859C125.83 67.8943 123.656 67.7488 121.52 67.3524C119.612 67.144 117.749 66.6379 115.998 65.8525L115.694 67.3641Z" fill="#231F20"/>
<path d="M127.415 74.5469C124.186 74.5469 120.689 72.5901 118.829 71.3714C117.318 70.4521 116.063 69.1666 115.179 67.6335C115.12 67.5267 115.099 67.4024 115.121 67.282L115.343 65.7705C115.354 65.6787 115.388 65.5912 115.441 65.5156C115.494 65.4399 115.565 65.3786 115.647 65.3369C115.731 65.2964 115.823 65.2754 115.916 65.2754C116.009 65.2754 116.101 65.2964 116.185 65.3369C117.884 66.087 119.686 66.5731 121.531 66.7782C123.624 67.1718 125.756 67.3135 127.883 67.2C127.961 67.1949 128.04 67.2057 128.115 67.2319C128.189 67.2581 128.257 67.299 128.315 67.3523C128.374 67.4085 128.421 67.4757 128.453 67.5502C128.485 67.6246 128.502 67.7048 128.503 67.7859V73.9376C128.503 74.0852 128.448 74.2275 128.348 74.3361C128.248 74.4447 128.111 74.5116 127.964 74.5234L127.415 74.5469ZM116.302 67.2586C117.097 68.5382 118.183 69.6105 119.472 70.3872C120.876 71.3128 124.338 73.3634 127.368 73.3751V68.3952C125.353 68.445 123.338 68.288 121.355 67.9265C119.667 67.7238 118.008 67.3307 116.407 66.7547L116.302 67.2586Z" fill="#231F20"/>
<path d="M121.414 68.7583L122.408 68.8286C123.545 68.9214 124.689 68.7874 125.775 68.4344C126.86 68.0815 127.864 67.5166 128.73 66.7724C129.596 66.0282 130.306 65.1195 130.819 64.0987C131.332 63.078 131.638 61.9655 131.719 60.8256L132.725 47.1629L122.619 48.8971L114.431 45.8154L113.436 59.4898C113.269 61.7782 114.015 64.0397 115.511 65.7776C117.006 67.5154 119.13 68.5875 121.414 68.7583Z" fill="white"/>
<path d="M123.064 69.4616H122.374L121.368 69.3795C118.922 69.1996 116.648 68.0545 115.045 66.1957C113.441 64.337 112.64 61.9166 112.817 59.4665L113.823 45.7922C113.829 45.6989 113.858 45.6085 113.907 45.5288C113.956 45.4492 114.023 45.3827 114.104 45.3352C114.187 45.2921 114.279 45.2695 114.373 45.2695C114.467 45.2695 114.559 45.2921 114.642 45.3352L122.62 48.3466L132.562 46.6476C132.653 46.632 132.746 46.6365 132.835 46.6608C132.924 46.6851 133.007 46.7285 133.077 46.7882C133.143 46.851 133.194 46.9278 133.226 47.0129C133.259 47.0981 133.272 47.1895 133.264 47.2803L132.27 60.9547C132.099 63.2851 131.055 65.4649 129.348 67.0575C127.641 68.6501 125.397 69.5381 123.064 69.5436V69.4616ZM121.45 68.1492L122.456 68.2312C123.51 68.3078 124.57 68.1755 125.573 67.8418C126.577 67.5081 127.505 66.9795 128.305 66.2863C129.104 65.5932 129.759 64.7489 130.233 63.8019C130.707 62.8549 130.989 61.8237 131.065 60.7672L132.013 47.8779L122.655 49.4832C122.551 49.5061 122.443 49.5061 122.339 49.4832L114.969 46.7061L114.022 59.5954C113.944 60.6497 114.074 61.7091 114.405 62.7129C114.737 63.7167 115.262 64.6452 115.952 65.4452C116.642 66.2452 117.483 66.901 118.426 67.3751C119.37 67.8491 120.397 68.1321 121.45 68.2078V68.1492Z" fill="#231F20"/>
<path d="M123.133 62.1378C122.404 62.1355 121.676 62.0689 120.958 61.9386C120.8 61.9074 120.66 61.8146 120.57 61.6806C120.48 61.5466 120.447 61.3823 120.478 61.2238C120.495 61.1467 120.526 61.0737 120.571 61.0089C120.616 60.9442 120.674 60.889 120.74 60.8465C120.806 60.804 120.88 60.7751 120.958 60.7614C121.035 60.7477 121.115 60.7496 121.192 60.7668C121.91 60.8894 122.638 60.9482 123.367 60.9426C123.321 58.9764 122.962 57.0303 122.303 55.1776C122.256 55.0222 122.273 54.8546 122.35 54.7118C122.427 54.569 122.557 54.4625 122.712 54.4159C122.867 54.3693 123.035 54.3863 123.177 54.4633C123.32 54.5402 123.426 54.6707 123.473 54.826C123.987 56.5368 125.099 60.6848 124.327 61.7394C124.248 61.8581 124.142 61.9562 124.018 62.0255C123.894 62.0949 123.755 62.1333 123.613 62.1378H123.133Z" fill="#231F20"/>
<path d="M127.245 53.5926C127.304 52.7858 127.086 52.1122 126.757 52.0881C126.429 52.0639 126.114 52.6983 126.055 53.5051C125.996 54.3118 126.215 54.9854 126.543 55.0096C126.872 55.0338 127.186 54.3994 127.245 53.5926Z" fill="#231F20"/>
<path d="M119.599 52.6605C119.658 51.8537 119.439 51.1801 119.111 51.1559C118.782 51.1318 118.468 51.7662 118.409 52.5729C118.35 53.3797 118.568 54.0533 118.897 54.0775C119.225 54.1016 119.54 53.4672 119.599 52.6605Z" fill="#231F20"/>
<path d="M122.619 65.0206H122.362C121.152 64.8972 119.979 64.5269 118.917 63.9324C117.855 63.3379 116.925 62.5319 116.186 61.5639C116.138 61.5004 116.104 61.4279 116.084 61.3508C116.065 61.2738 116.061 61.1936 116.073 61.115C116.085 61.0365 116.113 60.9611 116.154 60.8933C116.196 60.8255 116.25 60.7667 116.314 60.7203C116.442 60.6257 116.602 60.5851 116.759 60.607C116.917 60.6289 117.059 60.7116 117.157 60.8374C117.786 61.6523 118.57 62.3347 119.463 62.8454C120.356 63.3561 121.342 63.6852 122.362 63.8137C124.538 63.884 126.725 62.7005 128.889 60.2984C128.944 60.2417 129.009 60.1966 129.081 60.1658C129.154 60.135 129.232 60.1191 129.31 60.1191C129.389 60.1191 129.467 60.135 129.539 60.1658C129.611 60.1966 129.677 60.2417 129.731 60.2984C129.792 60.3501 129.842 60.4135 129.878 60.4848C129.914 60.5561 129.936 60.634 129.941 60.7137C129.947 60.7935 129.936 60.8735 129.91 60.9491C129.884 61.0247 129.843 61.0943 129.79 61.1538C127.497 63.6848 125.076 65.0206 122.619 65.0206Z" fill="#231F20"/>
<path d="M329.698 145.871C327.71 132.501 301.624 126.807 301.624 126.807C301.624 126.807 293.436 88.7483 288.757 72.4141C282.487 50.514 279.329 29.5162 246.003 24.5949C212.677 19.6735 130.48 21.1734 107.366 24.5949C84.2518 28.0164 83.1288 24.5949 70.9986 46.6004C58.8684 68.6059 49.0309 126.807 49.0309 126.807C49.0309 126.807 30.9468 137.06 25.835 147.582C20.7233 158.104 29.8004 204.506 33.4968 216.457C37.1932 228.409 40.8779 232.675 51.6862 232.675C62.4946 232.675 288.465 235.522 308.678 229.499C328.891 223.476 331.745 159.253 329.698 145.871ZM286.523 111.152C286.125 115.429 285.353 118.651 280.242 120.257C277.7 120.963 275.077 121.329 272.439 121.346C271.691 121.346 270.895 121.346 270.041 121.346H76.0168C75.7767 121.345 75.5375 121.317 75.3033 121.264C72.9638 120.843 68.4252 118.323 66.7291 111.668C64.8341 104.262 78.8827 56.033 83.2341 45.206C87.8429 33.7345 123.426 29.4108 166.344 29.7506C206.747 30.0669 257.584 32.3987 264.602 37.8122C271.621 43.2257 287.085 104.895 286.523 111.152Z" fill="#FEBB1B"/>
<path d="M118.338 198.811C118.338 198.811 109.249 168.65 109.53 165.51C109.811 162.369 112.08 158.397 113.928 157.835C115.776 157.272 233.686 156.405 236.517 158.397C239.347 160.389 241.067 163.518 240.786 165.803C240.505 168.088 235.382 195.401 233.967 198.811C232.551 202.221 123.169 204.787 118.338 198.811Z" fill="black"/>
<path d="M246.658 190.363C246.658 190.363 247.407 168.556 266.158 161.338C284.909 154.12 311.614 154.132 314.456 158.69C317.299 163.248 318.059 178.985 300.419 186.004C282.78 193.023 256.882 192.378 246.658 190.363Z" fill="white"/>
<path d="M264.287 192.308C258.343 192.383 252.405 191.929 246.542 190.949C246.405 190.921 246.284 190.846 246.198 190.736C246.112 190.627 246.068 190.49 246.074 190.351C246.074 190.129 247.056 168.088 265.959 160.8C284.465 153.687 311.778 153.265 314.96 158.374C316.609 161.011 317.358 166.576 315.58 171.943C314.094 176.489 310.292 182.711 300.665 186.555C289.775 190.89 275.808 192.308 264.287 192.308ZM247.279 189.894C257.549 191.769 282.874 192.378 300.221 185.465C309.438 181.786 313.088 175.88 314.457 171.58C316.317 165.908 315.182 160.94 313.965 158.995C311.333 154.789 284.722 154.835 266.369 161.889C249.77 168.275 247.524 186.625 247.279 189.894Z" fill="#231F20"/>
<path d="M105.178 191.886C105.178 191.886 101.201 163.623 82.6373 160.249C64.0736 156.874 41.3456 153.218 37.0175 160.249C32.6895 167.279 34.7482 179.606 46.6796 184.539C58.6109 189.472 95.8905 193.972 105.178 191.886Z" fill="white"/>
<path d="M98.1365 192.999C83.5382 192.999 56.2014 189.074 46.4341 185.031C43.8107 184.03 41.4406 182.46 39.4933 180.435C37.546 178.409 36.0695 175.978 35.1695 173.314C34.4189 171.112 34.1494 168.775 34.3795 166.46C34.6096 164.145 35.3338 161.907 36.503 159.897C41.0065 152.632 62.7285 155.948 82.7428 159.628C90.5332 161.057 96.9785 167.103 101.459 177.087C103.505 181.796 104.966 186.738 105.81 191.804C105.832 191.949 105.798 192.097 105.715 192.219C105.633 192.34 105.508 192.427 105.366 192.46C102.98 192.886 100.558 193.066 98.1365 192.999ZM50.5867 156.745C44.2467 156.745 39.2285 157.718 37.4973 160.507C36.4253 162.378 35.7662 164.459 35.5645 166.607C35.3627 168.756 35.6229 170.923 36.3275 172.962C37.178 175.461 38.569 177.741 40.401 179.639C42.233 181.537 44.4608 183.006 46.9254 183.942C58.0964 188.558 94.4519 193.234 104.558 191.417C103.88 187.504 99.1074 163.823 82.579 160.776C73.8528 159.194 60.5879 156.745 50.5867 156.745Z" fill="#231F20"/>
<path d="M222.328 215.321H128.55C123.866 215.321 120.069 219.125 120.069 223.816V235.85C120.069 240.542 123.866 244.346 128.55 244.346H222.328C227.012 244.346 230.809 240.542 230.809 235.85V223.816C230.809 219.125 227.012 215.321 222.328 215.321Z" fill="white"/>
<path d="M222.328 244.931H128.55C126.146 244.928 123.842 243.971 122.143 242.268C120.444 240.566 119.487 238.258 119.484 235.85V223.816C119.487 221.409 120.444 219.101 122.143 217.399C123.842 215.696 126.146 214.738 128.55 214.735H222.328C224.732 214.735 227.038 215.692 228.738 217.395C230.438 219.098 231.393 221.408 231.393 223.816V235.85C231.39 238.258 230.434 240.566 228.735 242.268C227.035 243.971 224.731 244.928 222.328 244.931ZM128.55 215.907C126.456 215.907 124.447 216.74 122.967 218.224C121.486 219.707 120.654 221.719 120.654 223.816V235.85C120.657 237.947 121.49 239.957 122.97 241.44C124.45 242.922 126.457 243.757 128.55 243.76H222.328C224.421 243.757 226.427 242.922 227.908 241.44C229.388 239.957 230.22 237.947 230.224 235.85V223.816C230.224 221.719 229.392 219.707 227.911 218.224C226.43 216.74 224.422 215.907 222.328 215.907H128.55Z" fill="#231F20"/>
<path d="M44.4807 220.442C44.4807 220.442 44.7615 208.49 49.3001 205.924C53.8386 203.357 87.6558 204.752 91.4106 205.924C95.1655 207.095 100.5 219.012 99.9381 220.442C99.3766 221.871 95.9492 223.851 95.107 223.57C94.2648 223.289 44.0947 224.695 44.4807 220.442Z" fill="white"/>
<path d="M95.2003 224.179C95.0847 224.18 94.9699 224.16 94.8611 224.121C94.6155 224.121 92.042 224.121 89.0124 224.121C67.1968 224.25 46.6562 224.004 44.1763 221.309C44.0576 221.19 43.9658 221.046 43.9073 220.889C43.8488 220.731 43.8248 220.562 43.8371 220.395C43.8371 219.703 44.2231 208.068 48.9606 205.408C53.698 202.748 88.0064 204.236 91.4689 205.408C94.3932 206.31 97.5398 212.509 98.4873 214.384C99.0488 215.555 100.827 219.539 100.406 220.699C99.8125 221.597 99.0467 222.367 98.1529 222.964C97.2591 223.562 96.2553 223.975 95.2003 224.179ZM93.1182 222.937C93.8053 222.885 94.4961 222.913 95.1769 223.019C95.7735 223.101 98.7914 221.437 99.2827 220.219C99.5869 218.918 94.5336 207.529 91.0946 206.486C87.4216 205.314 53.8735 203.978 49.5103 206.486C45.1472 208.993 44.9835 220.383 44.9835 220.547C45.6853 222.363 60.4942 223.195 88.9773 223.031L93.1182 222.937Z" fill="#231F20"/>
<path d="M310.959 220.442C310.959 220.442 310.666 208.49 306.128 205.924C301.589 203.357 267.772 204.752 264.017 205.924C260.262 207.095 254.928 219.012 255.502 220.442C256.075 221.871 259.479 223.851 260.321 223.57C261.163 223.289 311.333 224.695 310.959 220.442Z" fill="white"/>
<path d="M260.192 224.191C258.068 223.753 256.205 222.489 255.01 220.676C254.554 219.504 256.367 215.544 256.929 214.36C257.829 212.486 260.976 206.287 263.947 205.385C267.456 204.319 301.613 202.702 306.455 205.385C311.298 208.068 311.567 219.68 311.591 220.372C311.601 220.54 311.576 220.709 311.515 220.867C311.454 221.025 311.361 221.168 311.24 221.286C308.76 223.981 288.231 224.227 266.404 224.098C263.432 224.098 260.859 224.098 260.555 224.098C260.439 224.147 260.317 224.178 260.192 224.191ZM289.822 205.068C278.978 205.068 266.427 205.818 264.251 206.486C260.859 207.529 255.806 218.919 256.063 220.243C256.543 221.414 259.572 223.102 260.169 223.008C262.218 222.891 264.272 222.891 266.322 223.008C294.852 223.184 309.661 222.34 310.327 220.512C310.327 220.395 310 208.865 305.789 206.451C304.046 205.432 297.355 205.068 289.822 205.068Z" fill="#231F20"/>
<path d="M226.585 167.584H123.098C122.439 167.584 121.905 168.116 121.905 168.773C121.905 169.43 122.439 169.963 123.098 169.963H226.585C227.244 169.963 227.778 169.43 227.778 168.773C227.778 168.116 227.244 167.584 226.585 167.584Z" fill="white"/>
<path d="M226.585 176.583H123.098C122.439 176.583 121.905 177.115 121.905 177.772C121.905 178.429 122.439 178.962 123.098 178.962H226.585C227.244 178.962 227.778 178.429 227.778 177.772C227.778 177.115 227.244 176.583 226.585 176.583Z" fill="white"/>
<path d="M226.585 185.582H123.098C122.439 185.582 121.905 186.115 121.905 186.771C121.905 187.428 122.439 187.961 123.098 187.961H226.585C227.244 187.961 227.778 187.428 227.778 186.771C227.778 186.115 227.244 185.582 226.585 185.582Z" fill="white"/>
<path d="M31.8827 149.41C31.7276 149.41 31.5788 149.348 31.4692 149.239C31.3595 149.129 31.2979 148.98 31.2979 148.824C31.2979 148.669 31.3595 148.52 31.4692 148.41C31.5788 148.3 31.7276 148.238 31.8827 148.238C33.1577 148.238 161.279 148.238 322.621 145.368C322.774 145.373 322.919 145.435 323.029 145.54C323.139 145.646 323.206 145.789 323.218 145.942C323.215 146.097 323.153 146.246 323.044 146.357C322.935 146.468 322.788 146.533 322.633 146.539C161.291 149.375 33.1577 149.41 31.8827 149.41Z" fill="#231F20"/>
<path d="M161.104 6.28058H157.454V4.58154H166.812V6.28058H163.174V15.4906H161.057L161.104 6.28058Z" fill="white"/>
<path d="M170.953 4.58154H172.777L177.889 15.4906H175.468L174.368 12.9947H169.221L168.145 15.4906H165.806L170.953 4.58154ZM173.631 11.3308L171.806 6.86646L169.947 11.2957L173.631 11.3308Z" fill="white"/>
<path d="M181.925 9.66695L178.241 4.58154H180.849L183.188 8.30771L185.598 4.58154H188.031L184.417 9.71382L188.675 15.4906H186.008L183.188 11.2137L180.405 15.4906H177.854L181.925 9.66695Z" fill="white"/>
<path d="M190.09 4.58154H192.207V15.4906H190.09V4.58154Z" fill="white"/>
</svg>
