<svg width="249" height="300" viewBox="0 0 249 300" fill="none" xmlns="http://www.w3.org/2000/svg">
<g clip-path="url(#clip0_1229_32251)">
<path d="M42.929 260.582C47.0168 260.582 50.3306 257.268 50.3306 253.18C50.3306 249.093 47.0168 245.779 42.929 245.779C38.8412 245.779 35.5273 249.093 35.5273 253.18C35.5273 257.268 38.8412 260.582 42.929 260.582Z" fill="#F2F2F2"/>
<path d="M110.499 229.772C99.3595 245.364 99.758 271.45 102.866 300H155.533L157.823 294.657L160.876 300H210.491C210.491 300 206.674 227.482 199.804 225.192C192.935 222.902 110.499 229.772 110.499 229.772Z" fill="#2F2E41"/>
<path d="M1.77979 143.486C2.6947 145.014 3.93351 146.323 5.40894 147.32C6.88438 148.318 8.56056 148.979 10.3194 149.259C12.0783 149.539 13.877 149.429 15.589 148.938C17.3009 148.447 18.8844 147.587 20.2279 146.418L57.7807 167.957L56.3811 145.503L20.935 128.491C18.8214 126.364 16.0012 125.087 13.0085 124.9C10.0159 124.714 7.0589 125.632 4.69777 127.48C2.33665 129.328 0.735481 131.978 0.197679 134.928C-0.340123 137.878 0.222805 140.923 1.77979 143.486Z" fill="#FFB8B8"/>
<path d="M174.842 73.7998L180.067 83.8138L216.201 99.9232L206.703 191.85L202.705 201.369L204.865 209.636L199.658 215.737C204.885 220.467 205.549 225.418 202.705 230.54L186.065 234.352C186.065 234.352 93.5418 242.58 101.339 228.245C109.859 212.583 112.029 166.326 93.2204 141.608C77.2525 120.623 89.5117 93.3923 89.5117 93.3923L127.388 82.0722L141.32 73.7998L174.842 73.7998Z" fill="#3F3D56"/>
<path d="M217.743 285.649C219.027 284.414 220.025 282.914 220.666 281.252C221.307 279.59 221.576 277.808 221.454 276.031C221.332 274.255 220.822 272.526 219.96 270.968C219.098 269.409 217.905 268.059 216.464 267.012L229.034 225.583L207.467 231.982L198.837 270.342C197.238 272.879 196.625 275.914 197.114 278.872C197.604 281.831 199.161 284.507 201.492 286.394C203.822 288.28 206.764 289.247 209.759 289.109C212.754 288.972 215.595 287.741 217.743 285.649Z" fill="#FFB8B8"/>
<path d="M206.239 97.6055L216.202 99.9231C216.202 99.9231 257.38 180.047 247.457 195.314C237.534 210.581 225.378 261.126 225.378 261.126C225.378 261.126 207.399 257.551 200.529 248.391L213.109 188.444L200.133 138.063L206.239 97.6055Z" fill="#3F3D56"/>
<path d="M122.142 84.6582C117.24 106.423 104.666 157.242 91.9104 167.87C91.1014 168.634 90.1314 169.207 89.0718 169.546C44.2341 180.47 29.8672 152.605 29.8672 152.605C29.8672 152.605 41.8831 146.749 42.1879 135.303L66.42 142.822L87.5437 95.2817L90.6522 92.382L90.6696 92.3646L122.142 84.6582Z" fill="#3F3D56"/>
<path d="M17.2315 216.587L17.5892 87.5424C17.5994 84.9306 18.6451 82.4294 20.497 80.5877C22.3489 78.7459 24.8556 77.714 27.4673 77.7183L124.918 77.9885C127.53 77.9987 130.031 79.0445 131.872 80.8965C133.714 82.7484 134.746 85.2554 134.741 87.8672L134.384 216.912C134.373 219.524 133.328 222.025 131.476 223.867C129.624 225.708 127.117 226.74 124.506 226.736L27.0549 226.466C24.4433 226.455 21.9423 225.41 20.1006 223.558C18.259 221.706 17.2272 219.199 17.2315 216.587Z" fill="#E6E6E6"/>
<path d="M24.8145 177.631L25.0445 94.6693C25.054 92.2233 26.0333 89.8808 27.7677 88.156C29.502 86.4311 31.8497 85.4647 34.2956 85.4688L118.046 85.701C120.492 85.7104 122.835 86.6898 124.559 88.4243C126.284 90.1587 127.251 92.5066 127.247 94.9527L126.928 209.785C126.919 212.231 125.939 214.573 124.205 216.298C122.471 218.023 120.123 218.989 117.677 218.985L65.795 218.842C54.9 218.799 44.4666 214.436 36.7839 206.711C29.1013 198.985 24.7967 188.527 24.8145 177.631Z" fill="white"/>
<path d="M103.166 205.658C111.776 205.658 118.757 198.677 118.757 190.066C118.757 181.455 111.776 174.475 103.166 174.475C94.5554 174.475 87.5752 181.455 87.5752 190.066C87.5752 198.677 94.5554 205.658 103.166 205.658Z" fill="#FEBB1B"/>
<path d="M101.039 198.181C100.769 198.181 100.504 198.118 100.263 197.997C100.022 197.877 99.8128 197.702 99.6513 197.487L95.3979 191.815C95.2609 191.633 95.1612 191.426 95.1044 191.205C95.0477 190.984 95.035 190.754 95.0671 190.529C95.0992 190.303 95.1755 190.086 95.2915 189.89C95.4076 189.693 95.5612 189.522 95.7435 189.385C95.9259 189.249 96.1334 189.149 96.3542 189.093C96.575 189.036 96.8048 189.024 97.0304 189.056C97.256 189.088 97.473 189.165 97.669 189.281C97.865 189.398 98.0362 189.551 98.1727 189.734L100.955 193.444L108.102 182.723C108.228 182.533 108.391 182.369 108.58 182.242C108.769 182.114 108.982 182.026 109.206 181.981C109.429 181.935 109.66 181.935 109.884 181.979C110.108 182.023 110.321 182.111 110.51 182.238C110.7 182.364 110.863 182.527 110.99 182.717C111.117 182.906 111.205 183.119 111.25 183.343C111.294 183.567 111.294 183.797 111.249 184.021C111.204 184.245 111.116 184.458 110.988 184.647L102.482 197.408C102.328 197.639 102.121 197.83 101.878 197.964C101.635 198.098 101.364 198.172 101.087 198.18C101.071 198.18 101.055 198.181 101.039 198.181Z" fill="white"/>
<path d="M108.45 158.047H43.1458C42.1066 158.047 41.11 157.635 40.3752 156.9C39.6404 156.165 39.2275 155.168 39.2275 154.129C39.2275 153.09 39.6404 152.093 40.3752 151.358C41.11 150.623 42.1066 150.21 43.1458 150.21H108.45C109.489 150.21 110.486 150.623 111.22 151.358C111.955 152.093 112.368 153.09 112.368 154.129C112.368 155.168 111.955 156.165 111.22 156.9C110.486 157.635 109.489 158.047 108.45 158.047Z" fill="#FEBB1B"/>
<path d="M108.45 139.979H43.1458C42.1066 139.979 41.11 139.566 40.3752 138.831C39.6404 138.097 39.2275 137.1 39.2275 136.061C39.2275 135.021 39.6404 134.025 40.3752 133.29C41.11 132.555 42.1066 132.142 43.1458 132.142H108.45C109.489 132.142 110.486 132.555 111.22 133.29C111.955 134.025 112.368 135.021 112.368 136.061C112.368 137.1 111.955 138.097 111.22 138.831C110.486 139.566 109.489 139.979 108.45 139.979Z" fill="#FEBB1B"/>
<path d="M108.45 121.91H43.1458C42.1066 121.91 41.11 121.497 40.3752 120.763C39.6404 120.028 39.2275 119.031 39.2275 117.992C39.2275 116.952 39.6404 115.956 40.3752 115.221C41.11 114.486 42.1066 114.073 43.1458 114.073H108.45C109.489 114.073 110.486 114.486 111.22 115.221C111.955 115.956 112.368 116.952 112.368 117.992C112.368 119.031 111.955 120.028 111.22 120.763C110.486 121.497 109.489 121.91 108.45 121.91Z" fill="#FEBB1B"/>
<path d="M57.5127 103.842H43.1458C42.1066 103.842 41.11 103.429 40.3752 102.694C39.6404 101.959 39.2275 100.963 39.2275 99.9234C39.2275 98.8841 39.6404 97.8875 40.3752 97.1526C41.11 96.4177 42.1066 96.0049 43.1458 96.0049H57.5127C58.5519 96.0049 59.5485 96.4177 60.2833 97.1526C61.0181 97.8875 61.4309 98.8841 61.4309 99.9234C61.4309 100.963 61.0181 101.959 60.2833 102.694C59.5485 103.429 58.5519 103.842 57.5127 103.842Z" fill="#FEBB1B"/>
<path d="M213.155 76.4121C217.242 76.4121 220.556 73.0983 220.556 69.0105C220.556 64.9227 217.242 61.6089 213.155 61.6089C209.067 61.6089 205.753 64.9227 205.753 69.0105C205.753 73.0983 209.067 76.4121 213.155 76.4121Z" fill="#F2F2F2"/>
<path d="M69.9212 47.6763C74.009 47.6763 77.3228 44.3625 77.3228 40.2747C77.3228 36.1869 74.009 32.873 69.9212 32.873C65.8334 32.873 62.5195 36.1869 62.5195 40.2747C62.5195 44.3625 65.8334 47.6763 69.9212 47.6763Z" fill="#F2F2F2"/>
<path d="M155.534 66.8679C170.288 66.8679 182.249 54.9062 182.249 40.1507C182.249 25.3953 170.288 13.4336 155.534 13.4336C140.779 13.4336 128.818 25.3953 128.818 40.1507C128.818 54.9062 140.779 66.8679 155.534 66.8679Z" fill="#FFB8B8"/>
<path d="M167.394 1.01451C167.519 0.748873 167.721 0.526824 167.974 0.376881C168.227 0.226938 168.518 0.155945 168.812 0.173024C156.581 -0.558635 143.698 0.866993 133.466 7.60743C130.987 9.24043 128.65 11.1882 125.952 12.3728C125.825 12.43 125.714 12.5192 125.632 12.6317C125.549 12.7441 125.497 12.8761 125.48 13.0147C125.464 13.1532 125.483 13.2938 125.537 13.4226C125.591 13.5515 125.677 13.6642 125.787 13.7499L126.083 13.9823C126.2 14.074 126.29 14.196 126.342 14.335C126.394 14.474 126.408 14.6247 126.38 14.7707C126.353 14.9168 126.286 15.0525 126.187 15.1633C126.088 15.274 125.961 15.3555 125.819 15.3988C125.671 15.4439 125.538 15.5305 125.438 15.6482C125.337 15.766 125.272 15.91 125.251 16.0634C125.23 16.2168 125.252 16.3731 125.317 16.5139C125.381 16.6547 125.485 16.7742 125.615 16.8583L127.885 18.3259C127.999 18.3985 128.094 18.4986 128.159 18.6172C128.225 18.7357 128.26 18.8688 128.26 19.0043C128.261 19.1398 128.228 19.2732 128.164 19.3925C128.099 19.5117 128.006 19.6129 127.893 19.6868C127.7 19.8056 127.498 19.908 127.289 19.9929C127.158 20.0419 127.043 20.1236 126.953 20.2302C126.864 20.3368 126.803 20.4647 126.777 20.6015C126.751 20.7384 126.761 20.8795 126.806 21.0114C126.851 21.1434 126.928 21.2615 127.032 21.3546C128.015 22.23 128.769 23.3326 129.229 24.5663C129.985 26.5342 130.121 28.6773 130.249 30.7818C131.031 27.7453 134.345 25.9578 137.475 25.7762C140.605 25.5946 143.658 26.6275 146.705 27.3699C153.34 28.9824 160.23 29.2475 166.97 28.1496C164.681 32.7424 166.612 38.2206 168.554 42.9701L174.842 40.2748C183.478 35.3998 177.463 56.0219 174.234 58.8529C180.826 61.1385 198.08 35.7713 192.529 26.1489C189.642 21.1435 191.692 14.6877 186.015 9.94047C183.233 7.01154 177.678 8.31335 174.842 5.87906C173.726 4.92096 175.427 2.35771 173.893 1.79909C173.384 1.61355 167.478 0.827512 167.394 1.01451Z" fill="#2F2E41"/>
</g>
<defs>
<clipPath id="clip0_1229_32251">
<rect width="249" height="300" fill="white"/>
</clipPath>
</defs>
</svg>
