<svg width="300" height="340" viewBox="0 0 300 340" fill="none" xmlns="http://www.w3.org/2000/svg">
<g clip-path="url(#clip0_929_19572)">
<path d="M145.714 226.087C145.226 226.673 144.57 227.096 143.833 227.297C143.097 227.498 142.317 227.468 141.598 227.212C140.879 226.955 140.256 226.484 139.814 225.863C139.372 225.241 139.133 224.499 139.127 223.737C138.915 223.416 138.762 223.186 138.55 222.866C136.688 222.157 134.657 222.02 132.716 222.472C130.776 222.923 129.015 223.943 127.659 225.401C126.302 226.858 125.413 228.687 125.105 230.653C124.796 232.619 125.082 234.631 125.927 236.434C130.587 246.638 134.641 258.046 144.961 263.603C102.941 250.699 70.69 212.719 64.2408 169.384C66.2839 160.889 64.9259 151.259 59.5795 144.207C57.974 147.871 52.5085 149.285 51.4773 144.493C51.1816 142.553 50.903 140.613 50.6072 138.674C29.5624 138.983 35.8184 167.874 61.8059 170.104C63.1175 178.308 65.2843 186.352 68.2711 194.106C63.0137 188.157 56.4172 183.54 49.0241 180.634C41.9787 178.095 34.0506 178.142 26.4408 177.612C17.177 176.956 11.6807 187.961 17.9938 194.755C22.8629 192.009 28.9984 196.662 25.6807 201.853C39.4682 212.254 58.7263 214.596 74.7329 208.248C82.736 223.259 93.8513 236.394 107.338 246.779C90.8382 235.451 72.9363 247.926 57.0841 253.604C55.997 253.895 55.0181 254.495 54.2667 255.331C53.5154 256.168 53.024 257.204 52.8525 258.315C52.6811 259.425 52.837 260.562 53.3013 261.585C53.7656 262.609 54.5181 263.475 55.4671 264.079C57.4681 263.125 59.5591 262.372 61.7092 261.831C62.7234 261.584 63.7894 261.655 64.7611 262.037C65.7328 262.418 66.5627 263.09 67.1369 263.961C67.7112 264.831 68.0017 265.858 67.9686 266.9C67.9356 267.942 67.5806 268.948 66.9524 269.781C85.7267 276.736 108.006 270.81 121.374 256.063C128.811 260.247 136.663 263.647 144.804 266.21L164.722 244.392C164.551 244.093 164.364 243.794 164.186 243.503C162.469 245.638 160.498 247.555 158.314 249.212C156.857 238.102 157.397 231.028 145.715 226.086L145.714 226.087Z" fill="#F2F2F2"/>
<path d="M192.871 251.725C193.544 252.085 194.312 252.229 195.07 252.138C195.828 252.047 196.54 251.725 197.108 251.217C197.677 250.709 198.076 250.038 198.25 249.296C198.425 248.554 198.367 247.776 198.084 247.068C198.159 246.691 198.214 246.421 198.29 246.044C199.746 244.686 201.576 243.794 203.543 243.481C205.511 243.169 207.527 243.45 209.334 244.289C211.14 245.128 212.655 246.487 213.683 248.191C214.711 249.895 215.206 251.867 215.105 253.854C214.644 265.061 215.198 277.153 207.739 286.187C241.782 258.408 257.304 211.085 246.908 168.522C241.806 161.424 239.427 151.995 241.714 143.449C244.585 146.237 250.181 145.488 249.326 140.662C248.867 138.754 248.392 136.853 247.934 134.945C267.541 127.305 272.66 156.418 249.434 168.272C251.319 176.363 252.35 184.63 252.513 192.936C255.135 185.446 259.5 178.685 265.249 173.209C270.816 168.204 278.176 165.262 285.023 161.904C293.355 157.807 302.602 165.929 299.322 174.599C293.775 173.89 289.85 180.51 294.884 184.068C286.043 198.894 269.093 208.317 251.87 208.467C250.129 225.384 244.796 241.736 236.228 256.434C247.23 239.727 268.522 244.537 285.348 243.826C286.465 243.685 287.598 243.872 288.61 244.364C289.622 244.855 290.468 245.63 291.047 246.594C291.625 247.558 291.91 248.669 291.866 249.792C291.823 250.915 291.453 252.001 290.802 252.918C288.589 252.788 286.368 252.878 284.172 253.187C283.14 253.34 282.179 253.808 281.423 254.527C280.668 255.246 280.153 256.181 279.95 257.204C279.747 258.226 279.866 259.286 280.29 260.239C280.714 261.192 281.423 261.99 282.319 262.525C267.559 276.037 244.687 278.942 226.736 270.319C221.429 276.995 215.441 283.102 208.869 288.542L182.182 275.838C182.227 275.497 182.287 275.15 182.342 274.813C184.739 276.144 187.289 277.177 189.937 277.889C187.09 267.05 183.917 260.702 192.87 251.725H192.871Z" fill="#F2F2F2"/>
<path d="M216.89 340H178.77L172.377 308.438L170.304 340H134.894C134.907 315.214 136.2 290.445 138.767 265.792L139.206 264.299L139.899 261.911L140.338 260.412L147.666 235.284L148.245 233.29H192.369C194.908 235.671 197.25 238.254 199.372 241.013C200.091 241.928 200.842 242.919 201.611 243.986C202.145 244.742 202.699 245.536 203.252 246.368C208.169 253.677 211.844 261.747 214.129 270.251V270.257C214.517 271.712 214.861 273.2 215.16 274.722V274.729C215.427 276.082 215.662 277.454 215.846 278.858C215.986 279.88 216.107 280.916 216.196 281.964C216.727 287.77 216.541 293.619 215.643 299.38L216.89 340Z" fill="#2F2E41"/>
<path d="M39.306 183.443C40.503 182.039 39.8346 179.507 37.8132 177.789C35.7917 176.071 33.1827 175.816 31.9857 177.221C30.7887 178.625 31.4571 181.156 33.4785 182.874C35.5 184.593 38.109 184.847 39.306 183.443Z" fill="#E6E6E6"/>
<path d="M48.899 176.02C50.1507 174.905 50.5353 173.296 49.7582 172.426C48.981 171.557 47.3364 171.756 46.0847 172.872C44.833 173.987 44.4484 175.596 45.2255 176.466C46.0027 177.335 47.6474 177.136 48.899 176.02Z" fill="#FF6584"/>
<path d="M76.235 173.453C77.4866 172.338 77.8713 170.729 77.0941 169.859C76.317 168.99 74.6723 169.189 73.4206 170.305C72.169 171.42 71.7843 173.03 72.5615 173.899C73.3386 174.769 74.9833 174.569 76.235 173.453Z" fill="#E6E6E6"/>
<path d="M63.9769 173.172C65.1739 171.768 64.5055 169.237 62.4841 167.519C60.4626 165.8 57.8536 165.546 56.6566 166.95C55.4596 168.354 56.128 170.886 58.1494 172.604C60.1709 174.322 62.7799 174.577 63.9769 173.172Z" fill="#FF6584"/>
<path d="M24.5328 169.436C25.7845 168.32 26.1691 166.711 25.392 165.842C24.6148 164.972 22.9701 165.172 21.7185 166.287C20.4668 167.403 20.0822 169.012 20.8593 169.881C21.6365 170.751 23.2812 170.551 24.5328 169.436Z" fill="#3F3D56"/>
<path d="M20.9476 157.973C22.1446 156.568 21.4762 154.037 19.4548 152.319C17.4333 150.601 14.8243 150.346 13.6273 151.75C12.4303 153.155 13.0987 155.686 15.1201 157.404C17.1416 159.122 19.7506 159.377 20.9476 157.973Z" fill="#3F3D56"/>
<path d="M150.84 133.895C151.599 133.818 152.317 133.51 152.895 133.013C153.474 132.515 153.885 131.852 154.073 131.114C154.262 130.375 154.218 129.596 153.949 128.883C153.679 128.17 153.197 127.556 152.566 127.126C152.419 126.771 152.313 126.517 152.166 126.162C152.617 124.224 153.637 122.464 155.096 121.109C156.555 119.754 158.386 118.865 160.354 118.556C162.322 118.247 164.338 118.531 166.143 119.374C167.948 120.216 169.46 121.577 170.486 123.283C176.36 132.843 183.571 142.572 182.424 154.225C195.174 112.211 181.637 64.2837 149.243 34.7388C141.045 31.6864 133.805 25.1833 130.933 16.8159C134.872 17.5321 139.1 13.7947 135.695 10.2641C134.249 8.936 132.793 7.62161 131.347 6.29346C143.358 -10.9658 163.863 10.3521 151.2 33.1236C157.282 38.792 162.754 45.0798 167.527 51.8845C165.522 44.2072 165.371 36.1642 167.086 28.4171C168.912 21.1634 173.379 14.6225 177.189 8.0228C181.818 -0.0169273 194.029 1.5765 196.146 10.6004C191.146 13.1002 191.585 20.7812 197.749 20.9321C198.689 38.1618 189.878 55.4222 175.665 65.1353C183.665 80.1486 188.368 96.6921 189.461 113.663C189.267 93.6693 209.627 85.8078 223.198 75.8485C224.047 75.1102 225.092 74.6344 226.206 74.4792C227.321 74.3239 228.456 74.4959 229.474 74.9742C230.493 75.4524 231.35 76.2163 231.94 77.1725C232.531 78.1287 232.831 79.2361 232.802 80.3594C230.892 81.4841 229.099 82.7956 227.449 84.2744C226.677 84.9762 226.141 85.8993 225.915 86.9172C225.689 87.935 225.784 88.9977 226.186 89.9597C226.589 90.9217 227.279 91.7357 228.163 92.2904C229.047 92.845 230.081 93.113 231.124 93.0577C226.415 112.493 209.05 127.639 189.334 130.476C188.655 138.973 187.095 147.376 184.676 155.551L155.429 159.864C155.276 159.555 155.132 159.234 154.99 158.923C157.722 158.694 160.416 158.131 163.011 157.248C154.597 149.836 148.419 146.332 150.839 133.895L150.84 133.895Z" fill="#F2F2F2"/>
<path d="M180.256 124.53C166.94 124.53 159.718 122.905 157.196 119.437C154.97 116.377 156.462 112.339 158.19 107.664C159.432 104.303 160.839 100.495 160.839 96.7252C160.839 78.3911 170.148 69.0947 188.508 69.0947C197.643 69.0947 207.451 73.9405 214.745 82.0573C221.376 89.4364 224.68 98.2678 223.808 106.287C223.094 112.864 220.028 117.189 214.161 119.899L213.818 120.057L213.72 119.693C213.214 117.805 212.356 116.029 211.193 114.458C211.079 116.924 210.457 119.341 209.364 121.555L209.301 121.682L209.166 121.72C202.525 123.609 194.644 124.121 188.52 124.355C185.54 124.471 182.785 124.53 180.256 124.53Z" fill="#2F2E41"/>
<path d="M183.885 150.075C183.375 148.577 182.514 147.222 181.374 146.122C180.235 145.023 178.849 144.211 177.332 143.754C175.815 143.296 174.211 143.207 172.652 143.492C171.093 143.778 169.626 144.431 168.37 145.397L124.572 171.545L110.867 138.152C112.025 136.456 112.615 134.437 112.553 132.385C112.491 130.334 111.78 128.354 110.521 126.731C109.263 125.108 107.522 123.925 105.549 123.351C103.575 122.777 101.471 122.841 99.5363 123.536C97.6019 124.23 95.9375 125.518 94.7816 127.216C93.6258 128.913 93.038 130.932 93.1024 132.984C93.1669 135.036 93.8804 137.014 95.1405 138.636C96.4006 140.257 98.1427 141.439 100.117 142.011C100.962 151.64 105.656 194.681 121.987 193.116C135.714 191.801 169.804 169.13 180.392 161.269C182.086 160.013 183.337 158.252 183.965 156.24C184.593 154.228 184.565 152.07 183.885 150.075Z" fill="#FFB6B6"/>
<path d="M93.7867 164.173C95.0384 163.058 95.423 161.448 94.6459 160.579C93.8687 159.709 92.224 159.909 90.9724 161.024C89.7207 162.14 89.3361 163.749 90.1132 164.619C90.8904 165.488 92.535 165.289 93.7867 164.173Z" fill="#3F3D56"/>
<path d="M44.5895 159.709C45.8411 158.593 46.2258 156.984 45.4486 156.114C44.6715 155.245 43.0268 155.444 41.7751 156.56C40.5235 157.676 40.1388 159.285 40.916 160.154C41.6931 161.024 43.3378 160.824 44.5895 159.709Z" fill="#E6E6E6"/>
<path d="M173.816 129.634L194.817 128.554L204.571 143.945C204.571 143.945 222.924 147.009 221.652 168.605C220.38 190.201 199.322 209.152 199.322 209.152L200.222 220.399L198.659 224.859L198.859 227.364L200.992 230.017L201.212 232.76L199.322 237.1L201.892 241.256L147.867 236.029L145.892 228.843L148.774 224.984L147.164 219.95L149.584 215.109L150.846 199.73C150.846 199.73 137.04 179.019 152.889 163.419L159.249 152.621L166.367 143.95L173.816 129.634Z" fill="#FEBB1B"/>
<path d="M2.87276 109.501C4.00848 109.232 4.6159 107.693 4.22948 106.063C3.84306 104.433 2.60912 103.329 1.4734 103.597C0.337674 103.865 -0.269749 105.405 0.116674 107.035C0.503097 108.665 1.73704 109.769 2.87276 109.501Z" fill="#3F3D56"/>
<path d="M3.05831 89.6688C4.19403 89.4004 4.80147 87.8611 4.41505 86.2308C4.02862 84.6005 2.79466 83.4965 1.65894 83.7649C0.523221 84.0334 -0.0842022 85.5726 0.302221 87.2029C0.688643 88.8332 1.92258 89.9373 3.05831 89.6688Z" fill="#E6E6E6"/>
<path d="M184.256 125.288C196.546 125.288 206.509 115.34 206.509 103.067C206.509 90.7946 196.546 80.8457 184.256 80.8457C171.967 80.8457 162.004 90.7946 162.004 103.067C162.004 115.34 171.967 125.288 184.256 125.288Z" fill="#FFB6B6"/>
<path d="M181.277 101.72C179.359 101.72 177.443 101.666 175.527 101.558L175.185 101.539L175.23 101.2C175.512 99.0785 175.353 96.9222 174.763 94.8651C173.762 97.2073 172.271 99.3093 170.392 101.031L170.285 101.128L170.143 101.112C164.94 100.544 159.786 99.6054 154.717 98.3031L154.523 98.2535L154.485 98.0575C154.106 96.2013 153.91 94.3126 153.899 92.4184C153.899 86.5011 156.048 81.5207 159.949 78.3947C164.195 74.9921 170.282 73.9457 177.094 75.4465H198.876C201.271 75.4492 203.567 76.4003 205.26 78.0913C206.953 79.7822 207.906 82.0748 207.908 84.4662V98.2408L207.671 98.3028C199.055 100.564 190.185 101.712 181.277 101.72Z" fill="#2F2E41"/>
<path d="M12.0743 77.955C14.5499 76.998 16.0164 74.8281 15.3497 73.1084C14.6831 71.3886 12.1358 70.7703 9.66021 71.7272C7.18461 72.6842 5.71816 74.8541 6.3848 76.5738C7.05144 78.2936 9.59874 78.9119 12.0743 77.955Z" fill="#FF6584"/>
<path d="M30.2292 68.4247C31.3649 68.1562 31.9723 66.617 31.5859 64.9867C31.1995 63.3564 29.9656 62.2523 28.8298 62.5208C27.6941 62.7892 27.0867 64.3285 27.4731 65.9588C27.8595 67.5891 29.0935 68.6931 30.2292 68.4247Z" fill="#E6E6E6"/>
<path d="M13.8132 64.4432C14.9489 64.1748 15.5563 62.6356 15.1699 61.0052C14.7835 59.3749 13.5495 58.2709 12.4138 58.5393C11.2781 58.8078 10.6707 60.347 11.0571 61.9773C11.4435 63.6077 12.6775 64.7117 13.8132 64.4432Z" fill="#FF6584"/>
<path d="M14.7774 51.3993C17.253 50.4424 18.7195 48.2725 18.0528 46.5527C17.3862 44.833 14.8389 44.2146 12.3633 45.1716C9.88772 46.1285 8.42128 48.2984 9.08792 50.0182C9.75457 51.7379 12.3018 52.3563 14.7774 51.3993Z" fill="#E6E6E6"/>
<path d="M169.345 50.7433C171.003 49.9295 171.396 47.3413 170.225 44.9625C169.053 42.5838 166.76 41.3151 165.103 42.129C163.446 42.9428 163.052 45.5309 164.224 47.9097C165.395 50.2885 167.688 51.5571 169.345 50.7433Z" fill="#3F3D56"/>
<path d="M31.2126 46.1815C32.3483 45.9131 32.9557 44.3738 32.5693 42.7435C32.1829 41.1132 30.949 40.0092 29.8132 40.2776C28.6775 40.5461 28.0701 42.0853 28.4565 43.7156C28.8429 45.3459 30.0769 46.45 31.2126 46.1815Z" fill="#3F3D56"/>
<path d="M45.9483 47.4061C48.4239 46.4492 49.8904 44.2793 49.2237 42.5595C48.5571 40.8398 46.0098 40.2214 43.5342 41.1784C41.0586 42.1354 39.5922 44.3053 40.2588 46.025C40.9255 47.7447 43.4727 48.3631 45.9483 47.4061Z" fill="#3F3D56"/>
<path d="M29.4382 77.0024C28.4631 77.3585 27.6693 78.0863 27.2309 79.0262C26.7925 79.9661 26.7453 81.0412 27.0998 82.0158L50.5984 146.403C50.955 147.377 51.6838 148.17 52.625 148.608C53.5662 149.046 54.6428 149.093 55.6187 148.739L146.821 115.547C147.796 115.191 148.59 114.463 149.028 113.523C149.466 112.584 149.514 111.508 149.159 110.534L125.661 46.1461C125.304 45.1724 124.575 44.3796 123.634 43.9418C122.693 43.504 121.616 43.4569 120.64 43.8108L29.4382 77.0024Z" fill="#CCCCCC"/>
<path d="M112.877 124.351L57.0519 144.667C56.0015 145.048 54.8427 144.998 53.8298 144.526C52.8168 144.055 52.0324 143.202 51.6486 142.154L30.3355 83.7549C29.954 82.7061 30.0048 81.5489 30.4766 80.5373C30.9484 79.5258 31.8028 78.7424 32.8523 78.3591L118.901 47.0432C119.951 46.6622 121.11 46.7129 122.123 47.1841C123.136 47.6553 123.92 48.5085 124.304 49.5566L134.602 77.7744C137.895 86.8284 137.457 96.8169 133.384 105.549C129.311 114.28 121.936 121.042 112.877 124.351Z" fill="white"/>
<path d="M72.7078 82.1623L59.4419 86.9902C59.2755 87.0508 59.0988 87.078 58.9219 87.0704C58.745 87.0627 58.5714 87.0204 58.4109 86.9457C58.2503 86.871 58.1061 86.7656 57.9865 86.6353C57.8668 86.5049 57.774 86.3523 57.7133 86.1862C57.6527 86.0201 57.6254 85.8437 57.6331 85.667C57.6407 85.4904 57.6832 85.3169 57.7579 85.1566C57.8327 84.9964 57.9383 84.8524 58.0688 84.7328C58.1993 84.6133 58.3521 84.5207 58.5185 84.4601L71.7844 79.6322C72.1204 79.5099 72.4913 79.5259 72.8154 79.6767C73.1396 79.8275 73.3905 80.1007 73.513 80.4362C73.6354 80.7717 73.6194 81.1421 73.4684 81.4658C73.3174 81.7895 73.0438 82.04 72.7078 82.1623H72.7078Z" fill="#FEBB1B"/>
<path d="M104.334 76.5139L61.3301 92.1644C61.1637 92.2252 60.9869 92.2527 60.8099 92.2452C60.6328 92.2377 60.459 92.1954 60.2983 92.1208C60.1376 92.0462 59.9933 91.9407 59.8734 91.8103C59.7536 91.6799 59.6607 91.5272 59.6001 91.361C59.5394 91.1947 59.5121 91.0181 59.5198 90.8413C59.5275 90.6645 59.5701 90.491 59.645 90.3306C59.7199 90.1703 59.8258 90.0262 59.9565 89.9067C60.0872 89.7873 60.2402 89.6947 60.4068 89.6343L103.411 73.9837C103.577 73.9232 103.754 73.896 103.93 73.9036C104.107 73.9112 104.281 73.9536 104.442 74.0283C104.602 74.1029 104.746 74.2084 104.866 74.3387C104.986 74.4691 105.078 74.6216 105.139 74.7878C105.2 74.9539 105.227 75.1303 105.219 75.307C105.212 75.4836 105.169 75.657 105.095 75.8173C105.02 75.9776 104.914 76.1216 104.784 76.2411C104.653 76.3607 104.5 76.4533 104.334 76.5139Z" fill="#FEBB1B"/>
<path d="M106.501 82.4532L63.4976 98.1038C63.3312 98.1643 63.1545 98.1916 62.9776 98.1839C62.8007 98.1763 62.627 98.1339 62.4665 98.0593C62.306 97.9846 62.1618 97.8791 62.0421 97.7488C61.9224 97.6185 61.8296 97.4659 61.769 97.2998C61.7084 97.1336 61.6811 96.9572 61.6888 96.7806C61.6964 96.6039 61.7388 96.4305 61.8136 96.2702C61.8884 96.1099 61.994 95.9659 62.1245 95.8464C62.255 95.7269 62.4078 95.6342 62.5742 95.5737L105.578 79.9231C105.914 79.8013 106.284 79.8177 106.608 79.9686C106.932 80.1194 107.183 80.3924 107.305 80.7277C107.427 81.0629 107.411 81.433 107.261 81.7565C107.11 82.0801 106.837 82.3307 106.501 82.4532Z" fill="#FEBB1B"/>
<path d="M108.669 88.3923L65.6651 104.043C65.4987 104.104 65.3219 104.131 65.1449 104.124C64.9678 104.116 64.794 104.074 64.6333 103.999C64.4726 103.925 64.3282 103.819 64.2084 103.689C64.0886 103.558 63.9957 103.406 63.935 103.239C63.8743 103.073 63.8471 102.897 63.8548 102.72C63.8625 102.543 63.905 102.369 63.98 102.209C64.0549 102.049 64.1607 101.905 64.2914 101.785C64.4221 101.666 64.5751 101.573 64.7417 101.513L107.745 85.8622C107.912 85.8016 108.089 85.7744 108.265 85.782C108.442 85.7897 108.616 85.832 108.777 85.9067C108.937 85.9813 109.081 86.0868 109.201 86.2172C109.321 86.3475 109.413 86.5001 109.474 86.6662C109.535 86.8323 109.562 87.0087 109.554 87.1854C109.547 87.3621 109.504 87.5355 109.429 87.6958C109.355 87.856 109.249 88.0001 109.119 88.1196C108.988 88.2391 108.835 88.3318 108.669 88.3923Z" fill="#FEBB1B"/>
<path d="M110.836 94.3318L67.8325 109.982C67.4965 110.105 67.1256 110.089 66.8015 109.938C66.4773 109.787 66.2264 109.514 66.104 109.178C65.9815 108.843 65.9976 108.472 66.1486 108.149C66.2996 107.825 66.5731 107.574 66.9091 107.452L109.913 91.8016C110.079 91.7411 110.256 91.7138 110.433 91.7215C110.61 91.7291 110.783 91.7715 110.944 91.8461C111.104 91.9208 111.249 92.0263 111.368 92.1566C111.488 92.2869 111.581 92.4395 111.641 92.6056C111.702 92.7718 111.729 92.9482 111.722 93.1249C111.714 93.3015 111.672 93.4749 111.597 93.6352C111.522 93.7955 111.416 93.9395 111.286 94.059C111.155 94.1785 111.003 94.2712 110.836 94.3318H110.836Z" fill="#FEBB1B"/>
<path d="M247.287 110.827L223.742 167.091C222.738 169.472 220.836 171.363 218.448 172.356C216.059 173.349 213.376 173.364 210.976 172.399C209.734 171.899 208.608 171.153 207.665 170.204C206.722 169.256 205.982 168.125 205.491 166.882C205 165.639 204.767 164.309 204.807 162.973C204.847 161.637 205.16 160.323 205.725 159.112L231.977 101.416L246.448 65.6858C245.198 64.4403 244.362 62.8406 244.053 61.104C243.745 59.3674 243.979 57.5781 244.725 55.9791C245.47 54.3802 246.69 53.0492 248.22 52.167C249.749 51.2847 251.513 50.894 253.273 51.0479C255.032 51.2018 256.701 51.8928 258.054 53.0271C259.406 54.1614 260.376 55.6839 260.832 57.3879C261.288 59.0918 261.207 60.8946 260.601 62.5513C259.995 64.2079 258.893 65.6381 257.445 66.6475L247.287 110.827Z" fill="#FFB6B6"/>
<path d="M145.428 35.1628C147.021 34.6355 148.014 33.3113 147.647 32.2051C147.279 31.0988 145.691 30.6294 144.098 31.1567C142.506 31.6839 141.513 33.0081 141.88 34.1144C142.247 35.2206 143.836 35.69 145.428 35.1628Z" fill="#E6E6E6"/>
<path d="M167.703 34.1925C169.295 33.6653 170.288 32.3411 169.921 31.2348C169.554 30.1286 167.965 29.6592 166.373 30.1865C164.78 30.7137 163.787 32.0379 164.154 33.1442C164.522 34.2504 166.11 34.7198 167.703 34.1925Z" fill="#3F3D56"/>
<path d="M147.962 18.484C149.554 17.9568 150.547 16.6326 150.18 15.5263C149.813 14.4201 148.224 13.9507 146.631 14.478C145.039 15.0052 144.046 16.3294 144.413 17.4357C144.78 18.5419 146.369 19.0113 147.962 18.484Z" fill="#FF6584"/>
<path d="M162.632 20.0861C164.289 19.2722 164.682 16.6841 163.511 14.3053C162.339 11.9265 160.046 10.6579 158.389 11.4717C156.732 12.2856 156.338 14.8737 157.51 17.2525C158.681 19.6312 160.974 20.8999 162.632 20.0861Z" fill="#E6E6E6"/>
<path d="M135.904 19.7242C137.561 18.9104 137.955 16.3223 136.783 13.9435C135.612 11.5647 133.319 10.2961 131.662 11.1099C130.005 11.9237 129.611 14.5119 130.782 16.8907C131.954 19.2694 134.247 20.5381 135.904 19.7242Z" fill="#FF6584"/>
<path d="M102.055 11.5485C103.648 11.0213 104.641 9.69705 104.274 8.5908C103.906 7.48455 102.318 7.01518 100.725 7.54242C99.1327 8.06967 98.1395 9.39386 98.5068 10.5001C98.8741 11.6064 100.463 12.0757 102.055 11.5485Z" fill="#3F3D56"/>
<path d="M121.855 9.99528C123.448 9.46803 124.441 8.14384 124.073 7.03759C123.706 5.93134 122.117 5.46194 120.525 5.98919C118.933 6.51643 117.939 7.84065 118.307 8.9469C118.674 10.0531 120.263 10.5225 121.855 9.99528Z" fill="#E6E6E6"/>
</g>
<defs>
<clipPath id="clip0_929_19572">
<rect width="300" height="340" fill="white"/>
</clipPath>
</defs>
</svg>
